<svg width="118" height="224" viewBox="0 0 118 224" fill="none" xmlns="http://www.w3.org/2000/svg">
<path d="M-15.0768 3.9616C-15.0768 4.74513 -15.3091 5.51106 -15.7445 6.16255C-16.1798 6.81403 -16.7985 7.32179 -17.5224 7.62164C-18.2462 7.92148 -19.0428 7.99994 -19.8113 7.84708C-20.5797 7.69422 -21.2856 7.31691 -21.8397 6.76287C-22.3937 6.20883 -22.771 5.50294 -22.9239 4.73447C-23.0767 3.966 -22.9983 3.16945 -22.6984 2.44556C-22.3986 1.72167 -21.8908 1.10296 -21.2393 0.667651C-20.5879 0.232345 -19.8219 2.14144e-06 -19.0384 2.14144e-06C-17.9881 0.00117025 -16.9811 0.418927 -16.2384 1.16162C-15.4957 1.90431 -15.078 2.91128 -15.0768 3.9616ZM7.90047 2.14144e-06C7.11694 2.14144e-06 6.351 0.232345 5.69952 0.667651C5.04804 1.10296 4.54027 1.72167 4.24043 2.44556C3.94059 3.16945 3.86213 3.966 4.01499 4.73447C4.16785 5.50294 4.54515 6.20883 5.09919 6.76287C5.65323 7.31691 6.35912 7.69422 7.1276 7.84708C7.89607 7.99994 8.69262 7.92148 9.4165 7.62164C10.1404 7.32179 10.7591 6.81403 11.1944 6.16255C11.6297 5.51106 11.8621 4.74513 11.8621 3.9616C11.8609 2.91128 11.4431 1.90431 10.7005 1.16162C9.95776 0.418927 8.95079 0.00117025 7.90047 2.14144e-06ZM34.8393 7.9232C35.6229 7.9232 36.3888 7.69086 37.0403 7.25555C37.6918 6.82024 38.1995 6.20153 38.4994 5.47764C38.7992 4.75375 38.8777 3.9572 38.7248 3.18873C38.5719 2.42026 38.1946 1.71437 37.6406 1.16033C37.0866 0.606288 36.3807 0.228982 35.6122 0.0761228C34.8437 -0.0767364 34.0472 0.0017165 33.3233 0.30156C32.5994 0.601404 31.9807 1.10917 31.5454 1.76065C31.1101 2.41214 30.8777 3.17807 30.8777 3.9616C30.8789 5.01191 31.2967 6.01886 32.0394 6.76155C32.7821 7.50423 33.789 7.922 34.8393 7.9232ZM-19.0384 53.8777C-19.8219 53.8777 -20.5879 54.1101 -21.2393 54.5454C-21.8908 54.9807 -22.3986 55.5994 -22.6984 56.3233C-22.9983 57.0472 -23.0767 57.8437 -22.9239 58.6122C-22.771 59.3807 -22.3937 60.0866 -21.8397 60.6406C-21.2856 61.1946 -20.5797 61.5719 -19.8113 61.7248C-19.0428 61.8777 -18.2462 61.7992 -17.5224 61.4994C-16.7985 61.1995 -16.1798 60.6918 -15.7445 60.0403C-15.3091 59.3888 -15.0768 58.6229 -15.0768 57.8393C-15.078 56.789 -15.4957 55.782 -16.2384 55.0393C-16.9811 54.2967 -17.9881 53.8789 -19.0384 53.8777ZM7.90047 53.8777C7.11694 53.8777 6.351 54.1101 5.69952 54.5454C5.04804 54.9807 4.54027 55.5994 4.24043 56.3233C3.94059 57.0472 3.86213 57.8437 4.01499 58.6122C4.16785 59.3807 4.54515 60.0866 5.09919 60.6406C5.65323 61.1946 6.35912 61.5719 7.1276 61.7248C7.89607 61.8777 8.69262 61.7992 9.4165 61.4994C10.1404 61.1995 10.7591 60.6918 11.1944 60.0403C11.6297 59.3888 11.8621 58.6229 11.8621 57.8393C11.8609 56.789 11.4431 55.782 10.7005 55.0393C9.95776 54.2967 8.95079 53.8789 7.90047 53.8777ZM34.8393 53.8777C34.0558 53.8777 33.2899 54.1101 32.6384 54.5454C31.9869 54.9807 31.4791 55.5994 31.1793 56.3233C30.8794 57.0472 30.801 57.8437 30.9539 58.6122C31.1067 59.3807 31.484 60.0866 32.0381 60.6406C32.5921 61.1946 33.298 61.5719 34.0665 61.7248C34.8349 61.8777 35.6315 61.7992 36.3554 61.4994C37.0793 61.1995 37.698 60.6918 38.1333 60.0403C38.5686 59.3888 38.8009 58.6229 38.8009 57.8393C38.7997 56.789 38.382 55.7821 37.6393 55.0394C36.8966 54.2967 35.8896 53.8789 34.8393 53.8777ZM-19.0384 26.9389C-19.8219 26.9389 -20.5879 27.1712 -21.2393 27.6065C-21.8908 28.0418 -22.3986 28.6605 -22.6984 29.3844C-22.9983 30.1083 -23.0767 30.9049 -22.9239 31.6733C-22.771 32.4418 -22.3937 33.1477 -21.8397 33.7017C-21.2856 34.2558 -20.5797 34.6331 -19.8113 34.7859C-19.0428 34.9388 -18.2462 34.8604 -17.5224 34.5605C-16.7985 34.2607 -16.1798 33.7529 -15.7445 33.1014C-15.3091 32.4499 -15.0768 31.684 -15.0768 30.9005C-15.078 29.8501 -15.4957 28.8432 -16.2384 28.1005C-16.9811 27.3578 -17.9881 26.94 -19.0384 26.9389ZM7.90047 26.9389C7.11694 26.9389 6.351 27.1712 5.69952 27.6065C5.04804 28.0418 4.54027 28.6605 4.24043 29.3844C3.94059 30.1083 3.86213 30.9049 4.01499 31.6733C4.16785 32.4418 4.54515 33.1477 5.09919 33.7017C5.65323 34.2558 6.35912 34.6331 7.1276 34.7859C7.89607 34.9388 8.69262 34.8604 9.4165 34.5605C10.1404 34.2607 10.7591 33.7529 11.1944 33.1014C11.6297 32.4499 11.8621 31.684 11.8621 30.9005C11.8609 29.8501 11.4431 28.8432 10.7005 28.1005C9.95776 27.3578 8.95079 26.94 7.90047 26.9389ZM34.8393 26.9389C34.0558 26.9389 33.2899 27.1712 32.6384 27.6065C31.9869 28.0418 31.4791 28.6605 31.1793 29.3844C30.8794 30.1083 30.801 30.9049 30.9539 31.6733C31.1067 32.4418 31.484 33.1477 32.0381 33.7017C32.5921 34.2558 33.298 34.6331 34.0665 34.7859C34.8349 34.9388 35.6315 34.8604 36.3554 34.5605C37.0793 34.2607 37.698 33.7529 38.1333 33.1014C38.5686 32.4499 38.8009 31.684 38.8009 30.9005C38.7997 29.8502 38.382 28.8432 37.6393 28.1005C36.8966 27.3578 35.8896 26.9401 34.8393 26.9389Z" fill="#FF5050"/>
<path d="M63.9232 3.9616C63.9232 4.74513 63.6909 5.51106 63.2555 6.16255C62.8202 6.81403 62.2015 7.32179 61.4776 7.62164C60.7538 7.92148 59.9572 7.99994 59.1887 7.84708C58.4203 7.69422 57.7144 7.31691 57.1603 6.76287C56.6063 6.20883 56.229 5.50294 56.0761 4.73447C55.9233 3.966 56.0017 3.16945 56.3016 2.44556C56.6014 1.72167 57.1092 1.10296 57.7607 0.667651C58.4121 0.232345 59.1781 2.14144e-06 59.9616 2.14144e-06C61.0119 0.00117025 62.0189 0.418927 62.7616 1.16162C63.5043 1.90431 63.922 2.91128 63.9232 3.9616ZM86.9005 2.14144e-06C86.1169 2.14144e-06 85.351 0.232345 84.6995 0.667651C84.048 1.10296 83.5403 1.72167 83.2404 2.44556C82.9406 3.16945 82.8621 3.966 83.015 4.73447C83.1678 5.50294 83.5452 6.20883 84.0992 6.76287C84.6532 7.31691 85.3591 7.69422 86.1276 7.84708C86.8961 7.99994 87.6926 7.92148 88.4165 7.62164C89.1404 7.32179 89.7591 6.81403 90.1944 6.16255C90.6297 5.51106 90.8621 4.74513 90.8621 3.9616C90.8609 2.91128 90.4431 1.90431 89.7005 1.16162C88.9578 0.418927 87.9508 0.00117025 86.9005 2.14144e-06ZM113.839 7.9232C114.623 7.9232 115.389 7.69086 116.04 7.25555C116.692 6.82024 117.2 6.20153 117.499 5.47764C117.799 4.75375 117.878 3.9572 117.725 3.18873C117.572 2.42026 117.195 1.71437 116.641 1.16033C116.087 0.606288 115.381 0.228982 114.612 0.0761228C113.844 -0.0767364 113.047 0.0017165 112.323 0.30156C111.599 0.601404 110.981 1.10917 110.545 1.76065C110.11 2.41214 109.878 3.17807 109.878 3.9616C109.879 5.01191 110.297 6.01886 111.039 6.76155C111.782 7.50423 112.789 7.922 113.839 7.9232ZM59.9616 53.8777C59.1781 53.8777 58.4121 54.1101 57.7607 54.5454C57.1092 54.9807 56.6014 55.5994 56.3016 56.3233C56.0017 57.0472 55.9233 57.8437 56.0761 58.6122C56.229 59.3807 56.6063 60.0866 57.1603 60.6406C57.7144 61.1946 58.4203 61.5719 59.1887 61.7248C59.9572 61.8777 60.7538 61.7992 61.4776 61.4994C62.2015 61.1995 62.8202 60.6918 63.2555 60.0403C63.6909 59.3888 63.9232 58.6229 63.9232 57.8393C63.922 56.789 63.5043 55.782 62.7616 55.0393C62.0189 54.2967 61.0119 53.8789 59.9616 53.8777ZM86.9005 53.8777C86.1169 53.8777 85.351 54.1101 84.6995 54.5454C84.048 54.9807 83.5403 55.5994 83.2404 56.3233C82.9406 57.0472 82.8621 57.8437 83.015 58.6122C83.1678 59.3807 83.5452 60.0866 84.0992 60.6406C84.6532 61.1946 85.3591 61.5719 86.1276 61.7248C86.8961 61.8777 87.6926 61.7992 88.4165 61.4994C89.1404 61.1995 89.7591 60.6918 90.1944 60.0403C90.6297 59.3888 90.8621 58.6229 90.8621 57.8393C90.8609 56.789 90.4431 55.782 89.7005 55.0393C88.9578 54.2967 87.9508 53.8789 86.9005 53.8777ZM113.839 53.8777C113.056 53.8777 112.29 54.1101 111.638 54.5454C110.987 54.9807 110.479 55.5994 110.179 56.3233C109.879 57.0472 109.801 57.8437 109.954 58.6122C110.107 59.3807 110.484 60.0866 111.038 60.6406C111.592 61.1946 112.298 61.5719 113.066 61.7248C113.835 61.8777 114.631 61.7992 115.355 61.4994C116.079 61.1995 116.698 60.6918 117.133 60.0403C117.569 59.3888 117.801 58.6229 117.801 57.8393C117.8 56.789 117.382 55.7821 116.639 55.0394C115.897 54.2967 114.89 53.8789 113.839 53.8777ZM59.9616 26.9389C59.1781 26.9389 58.4121 27.1712 57.7607 27.6065C57.1092 28.0418 56.6014 28.6605 56.3016 29.3844C56.0017 30.1083 55.9233 30.9049 56.0761 31.6733C56.229 32.4418 56.6063 33.1477 57.1603 33.7017C57.7144 34.2558 58.4203 34.6331 59.1887 34.7859C59.9572 34.9388 60.7538 34.8604 61.4776 34.5605C62.2015 34.2607 62.8202 33.7529 63.2555 33.1014C63.6909 32.4499 63.9232 31.684 63.9232 30.9005C63.922 29.8501 63.5043 28.8432 62.7616 28.1005C62.0189 27.3578 61.0119 26.94 59.9616 26.9389ZM86.9005 26.9389C86.1169 26.9389 85.351 27.1712 84.6995 27.6065C84.048 28.0418 83.5403 28.6605 83.2404 29.3844C82.9406 30.1083 82.8621 30.9049 83.015 31.6733C83.1678 32.4418 83.5452 33.1477 84.0992 33.7017C84.6532 34.2558 85.3591 34.6331 86.1276 34.7859C86.8961 34.9388 87.6926 34.8604 88.4165 34.5605C89.1404 34.2607 89.7591 33.7529 90.1944 33.1014C90.6297 32.4499 90.8621 31.684 90.8621 30.9005C90.8609 29.8501 90.4431 28.8432 89.7005 28.1005C88.9578 27.3578 87.9508 26.94 86.9005 26.9389ZM113.839 26.9389C113.056 26.9389 112.29 27.1712 111.638 27.6065C110.987 28.0418 110.479 28.6605 110.179 29.3844C109.879 30.1083 109.801 30.9049 109.954 31.6733C110.107 32.4418 110.484 33.1477 111.038 33.7017C111.592 34.2558 112.298 34.6331 113.066 34.7859C113.835 34.9388 114.631 34.8604 115.355 34.5605C116.079 34.2607 116.698 33.7529 117.133 33.1014C117.569 32.4499 117.801 31.684 117.801 30.9005C117.8 29.8502 117.382 28.8432 116.639 28.1005C115.897 27.3578 114.89 26.9401 113.839 26.9389Z" fill="#FF5050"/>
<path d="M-15.0768 84.9616C-15.0768 85.7451 -15.3091 86.5111 -15.7445 87.1625C-16.1798 87.814 -16.7985 88.3218 -17.5224 88.6216C-18.2462 88.9215 -19.0428 88.9999 -19.8113 88.8471C-20.5797 88.6942 -21.2856 88.3169 -21.8397 87.7629C-22.3937 87.2088 -22.771 86.5029 -22.9239 85.7345C-23.0767 84.966 -22.9983 84.1694 -22.6984 83.4456C-22.3986 82.7217 -21.8908 82.103 -21.2393 81.6677C-20.5879 81.2323 -19.8219 81 -19.0384 81C-17.9881 81.0012 -16.9811 81.4189 -16.2384 82.1616C-15.4957 82.9043 -15.078 83.9113 -15.0768 84.9616ZM7.90047 81C7.11694 81 6.351 81.2323 5.69952 81.6677C5.04804 82.103 4.54027 82.7217 4.24043 83.4456C3.94059 84.1694 3.86213 84.966 4.01499 85.7345C4.16785 86.5029 4.54515 87.2088 5.09919 87.7629C5.65323 88.3169 6.35912 88.6942 7.1276 88.8471C7.89607 88.9999 8.69262 88.9215 9.4165 88.6216C10.1404 88.3218 10.7591 87.814 11.1944 87.1625C11.6297 86.5111 11.8621 85.7451 11.8621 84.9616C11.8609 83.9113 11.4431 82.9043 10.7005 82.1616C9.95776 81.4189 8.95079 81.0012 7.90047 81ZM34.8393 88.9232C35.6229 88.9232 36.3888 88.6909 37.0403 88.2555C37.6918 87.8202 38.1995 87.2015 38.4994 86.4776C38.7992 85.7538 38.8777 84.9572 38.7248 84.1887C38.5719 83.4203 38.1946 82.7144 37.6406 82.1603C37.0866 81.6063 36.3807 81.229 35.6122 81.0761C34.8437 80.9233 34.0472 81.0017 33.3233 81.3016C32.5994 81.6014 31.9807 82.1092 31.5454 82.7607C31.1101 83.4121 30.8777 84.1781 30.8777 84.9616C30.8789 86.0119 31.2967 87.0189 32.0394 87.7615C32.7821 88.5042 33.789 88.922 34.8393 88.9232ZM-19.0384 134.878C-19.8219 134.878 -20.5879 135.11 -21.2393 135.545C-21.8908 135.981 -22.3986 136.599 -22.6984 137.323C-22.9983 138.047 -23.0767 138.844 -22.9239 139.612C-22.771 140.381 -22.3937 141.087 -21.8397 141.641C-21.2856 142.195 -20.5797 142.572 -19.8113 142.725C-19.0428 142.878 -18.2462 142.799 -17.5224 142.499C-16.7985 142.2 -16.1798 141.692 -15.7445 141.04C-15.3091 140.389 -15.0768 139.623 -15.0768 138.839C-15.078 137.789 -15.4957 136.782 -16.2384 136.039C-16.9811 135.297 -17.9881 134.879 -19.0384 134.878ZM7.90047 134.878C7.11694 134.878 6.351 135.11 5.69952 135.545C5.04804 135.981 4.54027 136.599 4.24043 137.323C3.94059 138.047 3.86213 138.844 4.01499 139.612C4.16785 140.381 4.54515 141.087 5.09919 141.641C5.65323 142.195 6.35912 142.572 7.1276 142.725C7.89607 142.878 8.69262 142.799 9.4165 142.499C10.1404 142.2 10.7591 141.692 11.1944 141.04C11.6297 140.389 11.8621 139.623 11.8621 138.839C11.8609 137.789 11.4431 136.782 10.7005 136.039C9.95776 135.297 8.95079 134.879 7.90047 134.878ZM34.8393 134.878C34.0558 134.878 33.2899 135.11 32.6384 135.545C31.9869 135.981 31.4791 136.599 31.1793 137.323C30.8794 138.047 30.801 138.844 30.9539 139.612C31.1067 140.381 31.484 141.087 32.0381 141.641C32.5921 142.195 33.298 142.572 34.0665 142.725C34.8349 142.878 35.6315 142.799 36.3554 142.499C37.0793 142.2 37.698 141.692 38.1333 141.04C38.5686 140.389 38.8009 139.623 38.8009 138.839C38.7997 137.789 38.382 136.782 37.6393 136.039C36.8966 135.297 35.8896 134.879 34.8393 134.878ZM-19.0384 107.939C-19.8219 107.939 -20.5879 108.171 -21.2393 108.607C-21.8908 109.042 -22.3986 109.661 -22.6984 110.384C-22.9983 111.108 -23.0767 111.905 -22.9239 112.673C-22.771 113.442 -22.3937 114.148 -21.8397 114.702C-21.2856 115.256 -20.5797 115.633 -19.8113 115.786C-19.0428 115.939 -18.2462 115.86 -17.5224 115.561C-16.7985 115.261 -16.1798 114.753 -15.7445 114.101C-15.3091 113.45 -15.0768 112.684 -15.0768 111.9C-15.078 110.85 -15.4957 109.843 -16.2384 109.1C-16.9811 108.358 -17.9881 107.94 -19.0384 107.939ZM7.90047 107.939C7.11694 107.939 6.351 108.171 5.69952 108.607C5.04804 109.042 4.54027 109.661 4.24043 110.384C3.94059 111.108 3.86213 111.905 4.01499 112.673C4.16785 113.442 4.54515 114.148 5.09919 114.702C5.65323 115.256 6.35912 115.633 7.1276 115.786C7.89607 115.939 8.69262 115.86 9.4165 115.561C10.1404 115.261 10.7591 114.753 11.1944 114.101C11.6297 113.45 11.8621 112.684 11.8621 111.9C11.8609 110.85 11.4431 109.843 10.7005 109.1C9.95776 108.358 8.95079 107.94 7.90047 107.939ZM34.8393 107.939C34.0558 107.939 33.2899 108.171 32.6384 108.607C31.9869 109.042 31.4791 109.661 31.1793 110.384C30.8794 111.108 30.801 111.905 30.9539 112.673C31.1067 113.442 31.484 114.148 32.0381 114.702C32.5921 115.256 33.298 115.633 34.0665 115.786C34.8349 115.939 35.6315 115.86 36.3554 115.561C37.0793 115.261 37.698 114.753 38.1333 114.101C38.5686 113.45 38.8009 112.684 38.8009 111.9C38.7997 110.85 38.382 109.843 37.6393 109.101C36.8966 108.358 35.8896 107.94 34.8393 107.939Z" fill="#FF5050"/>
<path d="M63.9232 84.9616C63.9232 85.7451 63.6909 86.5111 63.2555 87.1625C62.8202 87.814 62.2015 88.3218 61.4776 88.6216C60.7538 88.9215 59.9572 88.9999 59.1887 88.8471C58.4203 88.6942 57.7144 88.3169 57.1603 87.7629C56.6063 87.2088 56.229 86.5029 56.0761 85.7345C55.9233 84.966 56.0017 84.1694 56.3016 83.4456C56.6014 82.7217 57.1092 82.103 57.7607 81.6677C58.4121 81.2323 59.1781 81 59.9616 81C61.0119 81.0012 62.0189 81.4189 62.7616 82.1616C63.5043 82.9043 63.922 83.9113 63.9232 84.9616ZM86.9005 81C86.1169 81 85.351 81.2323 84.6995 81.6677C84.048 82.103 83.5403 82.7217 83.2404 83.4456C82.9406 84.1694 82.8621 84.966 83.015 85.7345C83.1678 86.5029 83.5452 87.2088 84.0992 87.7629C84.6532 88.3169 85.3591 88.6942 86.1276 88.8471C86.8961 88.9999 87.6926 88.9215 88.4165 88.6216C89.1404 88.3218 89.7591 87.814 90.1944 87.1625C90.6297 86.5111 90.8621 85.7451 90.8621 84.9616C90.8609 83.9113 90.4431 82.9043 89.7005 82.1616C88.9578 81.4189 87.9508 81.0012 86.9005 81ZM113.839 88.9232C114.623 88.9232 115.389 88.6909 116.04 88.2555C116.692 87.8202 117.2 87.2015 117.499 86.4776C117.799 85.7538 117.878 84.9572 117.725 84.1887C117.572 83.4203 117.195 82.7144 116.641 82.1603C116.087 81.6063 115.381 81.229 114.612 81.0761C113.844 80.9233 113.047 81.0017 112.323 81.3016C111.599 81.6014 110.981 82.1092 110.545 82.7607C110.11 83.4121 109.878 84.1781 109.878 84.9616C109.879 86.0119 110.297 87.0189 111.039 87.7615C111.782 88.5042 112.789 88.922 113.839 88.9232ZM59.9616 134.878C59.1781 134.878 58.4121 135.11 57.7607 135.545C57.1092 135.981 56.6014 136.599 56.3016 137.323C56.0017 138.047 55.9233 138.844 56.0761 139.612C56.229 140.381 56.6063 141.087 57.1603 141.641C57.7144 142.195 58.4203 142.572 59.1887 142.725C59.9572 142.878 60.7538 142.799 61.4776 142.499C62.2015 142.2 62.8202 141.692 63.2555 141.04C63.6909 140.389 63.9232 139.623 63.9232 138.839C63.922 137.789 63.5043 136.782 62.7616 136.039C62.0189 135.297 61.0119 134.879 59.9616 134.878ZM86.9005 134.878C86.1169 134.878 85.351 135.11 84.6995 135.545C84.048 135.981 83.5403 136.599 83.2404 137.323C82.9406 138.047 82.8621 138.844 83.015 139.612C83.1678 140.381 83.5452 141.087 84.0992 141.641C84.6532 142.195 85.3591 142.572 86.1276 142.725C86.8961 142.878 87.6926 142.799 88.4165 142.499C89.1404 142.2 89.7591 141.692 90.1944 141.04C90.6297 140.389 90.8621 139.623 90.8621 138.839C90.8609 137.789 90.4431 136.782 89.7005 136.039C88.9578 135.297 87.9508 134.879 86.9005 134.878ZM113.839 134.878C113.056 134.878 112.29 135.11 111.638 135.545C110.987 135.981 110.479 136.599 110.179 137.323C109.879 138.047 109.801 138.844 109.954 139.612C110.107 140.381 110.484 141.087 111.038 141.641C111.592 142.195 112.298 142.572 113.066 142.725C113.835 142.878 114.631 142.799 115.355 142.499C116.079 142.2 116.698 141.692 117.133 141.04C117.569 140.389 117.801 139.623 117.801 138.839C117.8 137.789 117.382 136.782 116.639 136.039C115.897 135.297 114.89 134.879 113.839 134.878ZM59.9616 107.939C59.1781 107.939 58.4121 108.171 57.7607 108.607C57.1092 109.042 56.6014 109.661 56.3016 110.384C56.0017 111.108 55.9233 111.905 56.0761 112.673C56.229 113.442 56.6063 114.148 57.1603 114.702C57.7144 115.256 58.4203 115.633 59.1887 115.786C59.9572 115.939 60.7538 115.86 61.4776 115.561C62.2015 115.261 62.8202 114.753 63.2555 114.101C63.6909 113.45 63.9232 112.684 63.9232 111.9C63.922 110.85 63.5043 109.843 62.7616 109.1C62.0189 108.358 61.0119 107.94 59.9616 107.939ZM86.9005 107.939C86.1169 107.939 85.351 108.171 84.6995 108.607C84.048 109.042 83.5403 109.661 83.2404 110.384C82.9406 111.108 82.8621 111.905 83.015 112.673C83.1678 113.442 83.5452 114.148 84.0992 114.702C84.6532 115.256 85.3591 115.633 86.1276 115.786C86.8961 115.939 87.6926 115.86 88.4165 115.561C89.1404 115.261 89.7591 114.753 90.1944 114.101C90.6297 113.45 90.8621 112.684 90.8621 111.9C90.8609 110.85 90.4431 109.843 89.7005 109.1C88.9578 108.358 87.9508 107.94 86.9005 107.939ZM113.839 107.939C113.056 107.939 112.29 108.171 111.638 108.607C110.987 109.042 110.479 109.661 110.179 110.384C109.879 111.108 109.801 111.905 109.954 112.673C110.107 113.442 110.484 114.148 111.038 114.702C111.592 115.256 112.298 115.633 113.066 115.786C113.835 115.939 114.631 115.86 115.355 115.561C116.079 115.261 116.698 114.753 117.133 114.101C117.569 113.45 117.801 112.684 117.801 111.9C117.8 110.85 117.382 109.843 116.639 109.101C115.897 108.358 114.89 107.94 113.839 107.939Z" fill="#FF5050"/>
<path d="M-15.0768 165.962C-15.0768 166.745 -15.3091 167.511 -15.7445 168.163C-16.1798 168.814 -16.7985 169.322 -17.5224 169.622C-18.2462 169.921 -19.0428 170 -19.8113 169.847C-20.5797 169.694 -21.2856 169.317 -21.8397 168.763C-22.3937 168.209 -22.771 167.503 -22.9239 166.734C-23.0767 165.966 -22.9983 165.169 -22.6984 164.446C-22.3986 163.722 -21.8908 163.103 -21.2393 162.668C-20.5879 162.232 -19.8219 162 -19.0384 162C-17.9881 162.001 -16.9811 162.419 -16.2384 163.162C-15.4957 163.904 -15.078 164.911 -15.0768 165.962ZM7.90047 162C7.11694 162 6.351 162.232 5.69952 162.668C5.04804 163.103 4.54027 163.722 4.24043 164.446C3.94059 165.169 3.86213 165.966 4.01499 166.734C4.16785 167.503 4.54515 168.209 5.09919 168.763C5.65323 169.317 6.35912 169.694 7.1276 169.847C7.89607 170 8.69262 169.921 9.4165 169.622C10.1404 169.322 10.7591 168.814 11.1944 168.163C11.6297 167.511 11.8621 166.745 11.8621 165.962C11.8609 164.911 11.4431 163.904 10.7005 163.162C9.95776 162.419 8.95079 162.001 7.90047 162ZM34.8393 169.923C35.6229 169.923 36.3888 169.691 37.0403 169.256C37.6918 168.82 38.1995 168.202 38.4994 167.478C38.7992 166.754 38.8777 165.957 38.7248 165.189C38.5719 164.42 38.1946 163.714 37.6406 163.16C37.0866 162.606 36.3807 162.229 35.6122 162.076C34.8437 161.923 34.0472 162.002 33.3233 162.302C32.5994 162.601 31.9807 163.109 31.5454 163.761C31.1101 164.412 30.8777 165.178 30.8777 165.962C30.8789 167.012 31.2967 168.019 32.0394 168.762C32.7821 169.504 33.789 169.922 34.8393 169.923ZM-19.0384 215.878C-19.8219 215.878 -20.5879 216.11 -21.2393 216.545C-21.8908 216.981 -22.3986 217.599 -22.6984 218.323C-22.9983 219.047 -23.0767 219.844 -22.9239 220.612C-22.771 221.381 -22.3937 222.087 -21.8397 222.641C-21.2856 223.195 -20.5797 223.572 -19.8113 223.725C-19.0428 223.878 -18.2462 223.799 -17.5224 223.499C-16.7985 223.2 -16.1798 222.692 -15.7445 222.04C-15.3091 221.389 -15.0768 220.623 -15.0768 219.839C-15.078 218.789 -15.4957 217.782 -16.2384 217.039C-16.9811 216.297 -17.9881 215.879 -19.0384 215.878ZM7.90047 215.878C7.11694 215.878 6.351 216.11 5.69952 216.545C5.04804 216.981 4.54027 217.599 4.24043 218.323C3.94059 219.047 3.86213 219.844 4.01499 220.612C4.16785 221.381 4.54515 222.087 5.09919 222.641C5.65323 223.195 6.35912 223.572 7.1276 223.725C7.89607 223.878 8.69262 223.799 9.4165 223.499C10.1404 223.2 10.7591 222.692 11.1944 222.04C11.6297 221.389 11.8621 220.623 11.8621 219.839C11.8609 218.789 11.4431 217.782 10.7005 217.039C9.95776 216.297 8.95079 215.879 7.90047 215.878ZM34.8393 215.878C34.0558 215.878 33.2899 216.11 32.6384 216.545C31.9869 216.981 31.4791 217.599 31.1793 218.323C30.8794 219.047 30.801 219.844 30.9539 220.612C31.1067 221.381 31.484 222.087 32.0381 222.641C32.5921 223.195 33.298 223.572 34.0665 223.725C34.8349 223.878 35.6315 223.799 36.3554 223.499C37.0793 223.2 37.698 222.692 38.1333 222.04C38.5686 221.389 38.8009 220.623 38.8009 219.839C38.7997 218.789 38.382 217.782 37.6393 217.039C36.8966 216.297 35.8896 215.879 34.8393 215.878ZM-19.0384 188.939C-19.8219 188.939 -20.5879 189.171 -21.2393 189.607C-21.8908 190.042 -22.3986 190.661 -22.6984 191.384C-22.9983 192.108 -23.0767 192.905 -22.9239 193.673C-22.771 194.442 -22.3937 195.148 -21.8397 195.702C-21.2856 196.256 -20.5797 196.633 -19.8113 196.786C-19.0428 196.939 -18.2462 196.86 -17.5224 196.561C-16.7985 196.261 -16.1798 195.753 -15.7445 195.101C-15.3091 194.45 -15.0768 193.684 -15.0768 192.9C-15.078 191.85 -15.4957 190.843 -16.2384 190.1C-16.9811 189.358 -17.9881 188.94 -19.0384 188.939ZM7.90047 188.939C7.11694 188.939 6.351 189.171 5.69952 189.607C5.04804 190.042 4.54027 190.661 4.24043 191.384C3.94059 192.108 3.86213 192.905 4.01499 193.673C4.16785 194.442 4.54515 195.148 5.09919 195.702C5.65323 196.256 6.35912 196.633 7.1276 196.786C7.89607 196.939 8.69262 196.86 9.4165 196.561C10.1404 196.261 10.7591 195.753 11.1944 195.101C11.6297 194.45 11.8621 193.684 11.8621 192.9C11.8609 191.85 11.4431 190.843 10.7005 190.1C9.95776 189.358 8.95079 188.94 7.90047 188.939ZM34.8393 188.939C34.0558 188.939 33.2899 189.171 32.6384 189.607C31.9869 190.042 31.4791 190.661 31.1793 191.384C30.8794 192.108 30.801 192.905 30.9539 193.673C31.1067 194.442 31.484 195.148 32.0381 195.702C32.5921 196.256 33.298 196.633 34.0665 196.786C34.8349 196.939 35.6315 196.86 36.3554 196.561C37.0793 196.261 37.698 195.753 38.1333 195.101C38.5686 194.45 38.8009 193.684 38.8009 192.9C38.7997 191.85 38.382 190.843 37.6393 190.101C36.8966 189.358 35.8896 188.94 34.8393 188.939Z" fill="#FF5050"/>
<path d="M63.9232 165.962C63.9232 166.745 63.6909 167.511 63.2555 168.163C62.8202 168.814 62.2015 169.322 61.4776 169.622C60.7538 169.921 59.9572 170 59.1887 169.847C58.4203 169.694 57.7144 169.317 57.1603 168.763C56.6063 168.209 56.229 167.503 56.0761 166.734C55.9233 165.966 56.0017 165.169 56.3016 164.446C56.6014 163.722 57.1092 163.103 57.7607 162.668C58.4121 162.232 59.1781 162 59.9616 162C61.0119 162.001 62.0189 162.419 62.7616 163.162C63.5043 163.904 63.922 164.911 63.9232 165.962ZM86.9005 162C86.1169 162 85.351 162.232 84.6995 162.668C84.048 163.103 83.5403 163.722 83.2404 164.446C82.9406 165.169 82.8621 165.966 83.015 166.734C83.1678 167.503 83.5452 168.209 84.0992 168.763C84.6532 169.317 85.3591 169.694 86.1276 169.847C86.8961 170 87.6926 169.921 88.4165 169.622C89.1404 169.322 89.7591 168.814 90.1944 168.163C90.6297 167.511 90.8621 166.745 90.8621 165.962C90.8609 164.911 90.4431 163.904 89.7005 163.162C88.9578 162.419 87.9508 162.001 86.9005 162ZM113.839 169.923C114.623 169.923 115.389 169.691 116.04 169.256C116.692 168.82 117.2 168.202 117.499 167.478C117.799 166.754 117.878 165.957 117.725 165.189C117.572 164.42 117.195 163.714 116.641 163.16C116.087 162.606 115.381 162.229 114.612 162.076C113.844 161.923 113.047 162.002 112.323 162.302C111.599 162.601 110.981 163.109 110.545 163.761C110.11 164.412 109.878 165.178 109.878 165.962C109.879 167.012 110.297 168.019 111.039 168.762C111.782 169.504 112.789 169.922 113.839 169.923ZM59.9616 215.878C59.1781 215.878 58.4121 216.11 57.7607 216.545C57.1092 216.981 56.6014 217.599 56.3016 218.323C56.0017 219.047 55.9233 219.844 56.0761 220.612C56.229 221.381 56.6063 222.087 57.1603 222.641C57.7144 223.195 58.4203 223.572 59.1887 223.725C59.9572 223.878 60.7538 223.799 61.4776 223.499C62.2015 223.2 62.8202 222.692 63.2555 222.04C63.6909 221.389 63.9232 220.623 63.9232 219.839C63.922 218.789 63.5043 217.782 62.7616 217.039C62.0189 216.297 61.0119 215.879 59.9616 215.878ZM86.9005 215.878C86.1169 215.878 85.351 216.11 84.6995 216.545C84.048 216.981 83.5403 217.599 83.2404 218.323C82.9406 219.047 82.8621 219.844 83.015 220.612C83.1678 221.381 83.5452 222.087 84.0992 222.641C84.6532 223.195 85.3591 223.572 86.1276 223.725C86.8961 223.878 87.6926 223.799 88.4165 223.499C89.1404 223.2 89.7591 222.692 90.1944 222.04C90.6297 221.389 90.8621 220.623 90.8621 219.839C90.8609 218.789 90.4431 217.782 89.7005 217.039C88.9578 216.297 87.9508 215.879 86.9005 215.878ZM113.839 215.878C113.056 215.878 112.29 216.11 111.638 216.545C110.987 216.981 110.479 217.599 110.179 218.323C109.879 219.047 109.801 219.844 109.954 220.612C110.107 221.381 110.484 222.087 111.038 222.641C111.592 223.195 112.298 223.572 113.066 223.725C113.835 223.878 114.631 223.799 115.355 223.499C116.079 223.2 116.698 222.692 117.133 222.04C117.569 221.389 117.801 220.623 117.801 219.839C117.8 218.789 117.382 217.782 116.639 217.039C115.897 216.297 114.89 215.879 113.839 215.878ZM59.9616 188.939C59.1781 188.939 58.4121 189.171 57.7607 189.607C57.1092 190.042 56.6014 190.661 56.3016 191.384C56.0017 192.108 55.9233 192.905 56.0761 193.673C56.229 194.442 56.6063 195.148 57.1603 195.702C57.7144 196.256 58.4203 196.633 59.1887 196.786C59.9572 196.939 60.7538 196.86 61.4776 196.561C62.2015 196.261 62.8202 195.753 63.2555 195.101C63.6909 194.45 63.9232 193.684 63.9232 192.9C63.922 191.85 63.5043 190.843 62.7616 190.1C62.0189 189.358 61.0119 188.94 59.9616 188.939ZM86.9005 188.939C86.1169 188.939 85.351 189.171 84.6995 189.607C84.048 190.042 83.5403 190.661 83.2404 191.384C82.9406 192.108 82.8621 192.905 83.015 193.673C83.1678 194.442 83.5452 195.148 84.0992 195.702C84.6532 196.256 85.3591 196.633 86.1276 196.786C86.8961 196.939 87.6926 196.86 88.4165 196.561C89.1404 196.261 89.7591 195.753 90.1944 195.101C90.6297 194.45 90.8621 193.684 90.8621 192.9C90.8609 191.85 90.4431 190.843 89.7005 190.1C88.9578 189.358 87.9508 188.94 86.9005 188.939ZM113.839 188.939C113.056 188.939 112.29 189.171 111.638 189.607C110.987 190.042 110.479 190.661 110.179 191.384C109.879 192.108 109.801 192.905 109.954 193.673C110.107 194.442 110.484 195.148 111.038 195.702C111.592 196.256 112.298 196.633 113.066 196.786C113.835 196.939 114.631 196.86 115.355 196.561C116.079 196.261 116.698 195.753 117.133 195.101C117.569 194.45 117.801 193.684 117.801 192.9C117.8 191.85 117.382 190.843 116.639 190.101C115.897 189.358 114.89 188.94 113.839 188.939Z" fill="#FF5050"/>
</svg>
