<svg width="196" height="224" viewBox="0 0 196 224" fill="none" xmlns="http://www.w3.org/2000/svg">
<path d="M165.923 3.9616C165.923 4.74513 165.691 5.51106 165.256 6.16255C164.82 6.81403 164.202 7.32179 163.478 7.62164C162.754 7.92148 161.957 7.99994 161.189 7.84708C160.42 7.69422 159.714 7.31691 159.16 6.76287C158.606 6.20883 158.229 5.50294 158.076 4.73447C157.923 3.966 158.002 3.16945 158.302 2.44556C158.601 1.72167 159.109 1.10296 159.761 0.667651C160.412 0.232345 161.178 2.14144e-06 161.962 2.14144e-06C163.012 0.00117025 164.019 0.418927 164.762 1.16162C165.504 1.90431 165.922 2.91128 165.923 3.9616ZM188.9 2.14144e-06C188.117 2.14144e-06 187.351 0.232345 186.7 0.667651C186.048 1.10296 185.54 1.72167 185.24 2.44556C184.941 3.16945 184.862 3.966 185.015 4.73447C185.168 5.50294 185.545 6.20883 186.099 6.76287C186.653 7.31691 187.359 7.69422 188.128 7.84708C188.896 7.99994 189.693 7.92148 190.417 7.62164C191.14 7.32179 191.759 6.81403 192.194 6.16255C192.63 5.51106 192.862 4.74513 192.862 3.9616C192.861 2.91128 192.443 1.90431 191.7 1.16162C190.958 0.418927 189.951 0.00117025 188.9 2.14144e-06ZM215.839 7.9232C216.623 7.9232 217.389 7.69086 218.04 7.25555C218.692 6.82024 219.2 6.20153 219.499 5.47764C219.799 4.75375 219.878 3.9572 219.725 3.18873C219.572 2.42026 219.195 1.71437 218.641 1.16033C218.087 0.606288 217.381 0.228982 216.612 0.0761228C215.844 -0.0767364 215.047 0.0017165 214.323 0.30156C213.599 0.601404 212.981 1.10917 212.545 1.76065C212.11 2.41214 211.878 3.17807 211.878 3.9616C211.879 5.01191 212.297 6.01886 213.039 6.76155C213.782 7.50423 214.789 7.922 215.839 7.9232ZM161.962 53.8777C161.178 53.8777 160.412 54.1101 159.761 54.5454C159.109 54.9807 158.601 55.5994 158.302 56.3233C158.002 57.0472 157.923 57.8437 158.076 58.6122C158.229 59.3807 158.606 60.0866 159.16 60.6406C159.714 61.1946 160.42 61.5719 161.189 61.7248C161.957 61.8777 162.754 61.7992 163.478 61.4994C164.202 61.1995 164.82 60.6918 165.256 60.0403C165.691 59.3888 165.923 58.6229 165.923 57.8393C165.922 56.789 165.504 55.782 164.762 55.0393C164.019 54.2967 163.012 53.8789 161.962 53.8777ZM188.9 53.8777C188.117 53.8777 187.351 54.1101 186.7 54.5454C186.048 54.9807 185.54 55.5994 185.24 56.3233C184.941 57.0472 184.862 57.8437 185.015 58.6122C185.168 59.3807 185.545 60.0866 186.099 60.6406C186.653 61.1946 187.359 61.5719 188.128 61.7248C188.896 61.8777 189.693 61.7992 190.417 61.4994C191.14 61.1995 191.759 60.6918 192.194 60.0403C192.63 59.3888 192.862 58.6229 192.862 57.8393C192.861 56.789 192.443 55.782 191.7 55.0393C190.958 54.2967 189.951 53.8789 188.9 53.8777ZM215.839 53.8777C215.056 53.8777 214.29 54.1101 213.638 54.5454C212.987 54.9807 212.479 55.5994 212.179 56.3233C211.879 57.0472 211.801 57.8437 211.954 58.6122C212.107 59.3807 212.484 60.0866 213.038 60.6406C213.592 61.1946 214.298 61.5719 215.066 61.7248C215.835 61.8777 216.631 61.7992 217.355 61.4994C218.079 61.1995 218.698 60.6918 219.133 60.0403C219.569 59.3888 219.801 58.6229 219.801 57.8393C219.8 56.789 219.382 55.7821 218.639 55.0394C217.897 54.2967 216.89 53.8789 215.839 53.8777ZM161.962 26.9389C161.178 26.9389 160.412 27.1712 159.761 27.6065C159.109 28.0418 158.601 28.6605 158.302 29.3844C158.002 30.1083 157.923 30.9049 158.076 31.6733C158.229 32.4418 158.606 33.1477 159.16 33.7017C159.714 34.2558 160.42 34.6331 161.189 34.7859C161.957 34.9388 162.754 34.8604 163.478 34.5605C164.202 34.2607 164.82 33.7529 165.256 33.1014C165.691 32.4499 165.923 31.684 165.923 30.9005C165.922 29.8501 165.504 28.8432 164.762 28.1005C164.019 27.3578 163.012 26.94 161.962 26.9389ZM188.9 26.9389C188.117 26.9389 187.351 27.1712 186.7 27.6065C186.048 28.0418 185.54 28.6605 185.24 29.3844C184.941 30.1083 184.862 30.9049 185.015 31.6733C185.168 32.4418 185.545 33.1477 186.099 33.7017C186.653 34.2558 187.359 34.6331 188.128 34.7859C188.896 34.9388 189.693 34.8604 190.417 34.5605C191.14 34.2607 191.759 33.7529 192.194 33.1014C192.63 32.4499 192.862 31.684 192.862 30.9005C192.861 29.8501 192.443 28.8432 191.7 28.1005C190.958 27.3578 189.951 26.94 188.9 26.9389ZM215.839 26.9389C215.056 26.9389 214.29 27.1712 213.638 27.6065C212.987 28.0418 212.479 28.6605 212.179 29.3844C211.879 30.1083 211.801 30.9049 211.954 31.6733C212.107 32.4418 212.484 33.1477 213.038 33.7017C213.592 34.2558 214.298 34.6331 215.066 34.7859C215.835 34.9388 216.631 34.8604 217.355 34.5605C218.079 34.2607 218.698 33.7529 219.133 33.1014C219.569 32.4499 219.801 31.684 219.801 30.9005C219.8 29.8502 219.382 28.8432 218.639 28.1005C217.897 27.3578 216.89 26.9401 215.839 26.9389Z" fill="#FF925C"/>
<path d="M7.9232 3.9616C7.9232 4.74513 7.69086 5.51106 7.25555 6.16255C6.82024 6.81403 6.20153 7.32179 5.47764 7.62164C4.75375 7.92148 3.9572 7.99994 3.18873 7.84708C2.42026 7.69422 1.71437 7.31691 1.16033 6.76287C0.606288 6.20883 0.228982 5.50294 0.0761228 4.73447C-0.0767364 3.966 0.0017165 3.16945 0.30156 2.44556C0.601404 1.72167 1.10917 1.10296 1.76065 0.667651C2.41214 0.232345 3.17807 2.14144e-06 3.9616 2.14144e-06C5.01192 0.00117025 6.01889 0.418927 6.76158 1.16162C7.50427 1.90431 7.92203 2.91128 7.9232 3.9616ZM30.9005 2.14144e-06C30.1169 2.14144e-06 29.351 0.232345 28.6995 0.667651C28.048 1.10296 27.5403 1.72167 27.2404 2.44556C26.9406 3.16945 26.8621 3.966 27.015 4.73447C27.1678 5.50294 27.5452 6.20883 28.0992 6.76287C28.6532 7.31691 29.3591 7.69422 30.1276 7.84708C30.8961 7.99994 31.6926 7.92148 32.4165 7.62164C33.1404 7.32179 33.7591 6.81403 34.1944 6.16255C34.6297 5.51106 34.8621 4.74513 34.8621 3.9616C34.8609 2.91128 34.4431 1.90431 33.7005 1.16162C32.9578 0.418927 31.9508 0.00117025 30.9005 2.14144e-06ZM57.8393 7.9232C58.6229 7.9232 59.3888 7.69086 60.0403 7.25555C60.6918 6.82024 61.1995 6.20153 61.4994 5.47764C61.7992 4.75375 61.8777 3.9572 61.7248 3.18873C61.5719 2.42026 61.1946 1.71437 60.6406 1.16033C60.0866 0.606288 59.3807 0.228982 58.6122 0.0761228C57.8437 -0.0767364 57.0472 0.0017165 56.3233 0.30156C55.5994 0.601404 54.9807 1.10917 54.5454 1.76065C54.1101 2.41214 53.8777 3.17807 53.8777 3.9616C53.8789 5.01191 54.2967 6.01886 55.0394 6.76155C55.7821 7.50423 56.789 7.922 57.8393 7.9232ZM3.9616 53.8777C3.17807 53.8777 2.41214 54.1101 1.76065 54.5454C1.10917 54.9807 0.601404 55.5994 0.30156 56.3233C0.0017165 57.0472 -0.0767364 57.8437 0.0761228 58.6122C0.228982 59.3807 0.606288 60.0866 1.16033 60.6406C1.71437 61.1946 2.42026 61.5719 3.18873 61.7248C3.9572 61.8777 4.75375 61.7992 5.47764 61.4994C6.20153 61.1995 6.82024 60.6918 7.25555 60.0403C7.69086 59.3888 7.9232 58.6229 7.9232 57.8393C7.92203 56.789 7.50427 55.782 6.76158 55.0393C6.01889 54.2967 5.01192 53.8789 3.9616 53.8777ZM30.9005 53.8777C30.1169 53.8777 29.351 54.1101 28.6995 54.5454C28.048 54.9807 27.5403 55.5994 27.2404 56.3233C26.9406 57.0472 26.8621 57.8437 27.015 58.6122C27.1678 59.3807 27.5452 60.0866 28.0992 60.6406C28.6532 61.1946 29.3591 61.5719 30.1276 61.7248C30.8961 61.8777 31.6926 61.7992 32.4165 61.4994C33.1404 61.1995 33.7591 60.6918 34.1944 60.0403C34.6297 59.3888 34.8621 58.6229 34.8621 57.8393C34.8609 56.789 34.4431 55.782 33.7005 55.0393C32.9578 54.2967 31.9508 53.8789 30.9005 53.8777ZM57.8393 53.8777C57.0558 53.8777 56.2899 54.1101 55.6384 54.5454C54.9869 54.9807 54.4791 55.5994 54.1793 56.3233C53.8794 57.0472 53.801 57.8437 53.9539 58.6122C54.1067 59.3807 54.484 60.0866 55.0381 60.6406C55.5921 61.1946 56.298 61.5719 57.0665 61.7248C57.8349 61.8777 58.6315 61.7992 59.3554 61.4994C60.0793 61.1995 60.698 60.6918 61.1333 60.0403C61.5686 59.3888 61.8009 58.6229 61.8009 57.8393C61.7997 56.789 61.382 55.7821 60.6393 55.0394C59.8966 54.2967 58.8896 53.8789 57.8393 53.8777ZM3.9616 26.9389C3.17807 26.9389 2.41214 27.1712 1.76065 27.6065C1.10917 28.0418 0.601404 28.6605 0.30156 29.3844C0.0017165 30.1083 -0.0767364 30.9049 0.0761228 31.6733C0.228982 32.4418 0.606288 33.1477 1.16033 33.7017C1.71437 34.2558 2.42026 34.6331 3.18873 34.7859C3.9572 34.9388 4.75375 34.8604 5.47764 34.5605C6.20153 34.2607 6.82024 33.7529 7.25555 33.1014C7.69086 32.4499 7.9232 31.684 7.9232 30.9005C7.92203 29.8501 7.50427 28.8432 6.76158 28.1005C6.01889 27.3578 5.01192 26.94 3.9616 26.9389ZM30.9005 26.9389C30.1169 26.9389 29.351 27.1712 28.6995 27.6065C28.048 28.0418 27.5403 28.6605 27.2404 29.3844C26.9406 30.1083 26.8621 30.9049 27.015 31.6733C27.1678 32.4418 27.5452 33.1477 28.0992 33.7017C28.6532 34.2558 29.3591 34.6331 30.1276 34.7859C30.8961 34.9388 31.6926 34.8604 32.4165 34.5605C33.1404 34.2607 33.7591 33.7529 34.1944 33.1014C34.6297 32.4499 34.8621 31.684 34.8621 30.9005C34.8609 29.8501 34.4431 28.8432 33.7005 28.1005C32.9578 27.3578 31.9508 26.94 30.9005 26.9389ZM57.8393 26.9389C57.0558 26.9389 56.2899 27.1712 55.6384 27.6065C54.9869 28.0418 54.4791 28.6605 54.1793 29.3844C53.8794 30.1083 53.801 30.9049 53.9539 31.6733C54.1067 32.4418 54.484 33.1477 55.0381 33.7017C55.5921 34.2558 56.298 34.6331 57.0665 34.7859C57.8349 34.9388 58.6315 34.8604 59.3554 34.5605C60.0793 34.2607 60.698 33.7529 61.1333 33.1014C61.5686 32.4499 61.8009 31.684 61.8009 30.9005C61.7997 29.8502 61.382 28.8432 60.6393 28.1005C59.8966 27.3578 58.8896 26.9401 57.8393 26.9389Z" fill="#FF925C"/>
<path d="M86.9232 3.9616C86.9232 4.74513 86.6909 5.51106 86.2555 6.16255C85.8202 6.81403 85.2015 7.32179 84.4776 7.62164C83.7538 7.92148 82.9572 7.99994 82.1887 7.84708C81.4203 7.69422 80.7144 7.31691 80.1603 6.76287C79.6063 6.20883 79.229 5.50294 79.0761 4.73447C78.9233 3.966 79.0017 3.16945 79.3016 2.44556C79.6014 1.72167 80.1092 1.10296 80.7607 0.667651C81.4121 0.232345 82.1781 2.14144e-06 82.9616 2.14144e-06C84.0119 0.00117025 85.0189 0.418927 85.7616 1.16162C86.5043 1.90431 86.922 2.91128 86.9232 3.9616ZM109.9 2.14144e-06C109.117 2.14144e-06 108.351 0.232345 107.7 0.667651C107.048 1.10296 106.54 1.72167 106.24 2.44556C105.941 3.16945 105.862 3.966 106.015 4.73447C106.168 5.50294 106.545 6.20883 107.099 6.76287C107.653 7.31691 108.359 7.69422 109.128 7.84708C109.896 7.99994 110.693 7.92148 111.417 7.62164C112.14 7.32179 112.759 6.81403 113.194 6.16255C113.63 5.51106 113.862 4.74513 113.862 3.9616C113.861 2.91128 113.443 1.90431 112.7 1.16162C111.958 0.418927 110.951 0.00117025 109.9 2.14144e-06ZM136.839 7.9232C137.623 7.9232 138.389 7.69086 139.04 7.25555C139.692 6.82024 140.2 6.20153 140.499 5.47764C140.799 4.75375 140.878 3.9572 140.725 3.18873C140.572 2.42026 140.195 1.71437 139.641 1.16033C139.087 0.606288 138.381 0.228982 137.612 0.0761228C136.844 -0.0767364 136.047 0.0017165 135.323 0.30156C134.599 0.601404 133.981 1.10917 133.545 1.76065C133.11 2.41214 132.878 3.17807 132.878 3.9616C132.879 5.01191 133.297 6.01886 134.039 6.76155C134.782 7.50423 135.789 7.922 136.839 7.9232ZM82.9616 53.8777C82.1781 53.8777 81.4121 54.1101 80.7607 54.5454C80.1092 54.9807 79.6014 55.5994 79.3016 56.3233C79.0017 57.0472 78.9233 57.8437 79.0761 58.6122C79.229 59.3807 79.6063 60.0866 80.1603 60.6406C80.7144 61.1946 81.4203 61.5719 82.1887 61.7248C82.9572 61.8777 83.7538 61.7992 84.4776 61.4994C85.2015 61.1995 85.8202 60.6918 86.2555 60.0403C86.6909 59.3888 86.9232 58.6229 86.9232 57.8393C86.922 56.789 86.5043 55.782 85.7616 55.0393C85.0189 54.2967 84.0119 53.8789 82.9616 53.8777ZM109.9 53.8777C109.117 53.8777 108.351 54.1101 107.7 54.5454C107.048 54.9807 106.54 55.5994 106.24 56.3233C105.941 57.0472 105.862 57.8437 106.015 58.6122C106.168 59.3807 106.545 60.0866 107.099 60.6406C107.653 61.1946 108.359 61.5719 109.128 61.7248C109.896 61.8777 110.693 61.7992 111.417 61.4994C112.14 61.1995 112.759 60.6918 113.194 60.0403C113.63 59.3888 113.862 58.6229 113.862 57.8393C113.861 56.789 113.443 55.782 112.7 55.0393C111.958 54.2967 110.951 53.8789 109.9 53.8777ZM136.839 53.8777C136.056 53.8777 135.29 54.1101 134.638 54.5454C133.987 54.9807 133.479 55.5994 133.179 56.3233C132.879 57.0472 132.801 57.8437 132.954 58.6122C133.107 59.3807 133.484 60.0866 134.038 60.6406C134.592 61.1946 135.298 61.5719 136.066 61.7248C136.835 61.8777 137.631 61.7992 138.355 61.4994C139.079 61.1995 139.698 60.6918 140.133 60.0403C140.569 59.3888 140.801 58.6229 140.801 57.8393C140.8 56.789 140.382 55.7821 139.639 55.0394C138.897 54.2967 137.89 53.8789 136.839 53.8777ZM82.9616 26.9389C82.1781 26.9389 81.4121 27.1712 80.7607 27.6065C80.1092 28.0418 79.6014 28.6605 79.3016 29.3844C79.0017 30.1083 78.9233 30.9049 79.0761 31.6733C79.229 32.4418 79.6063 33.1477 80.1603 33.7017C80.7144 34.2558 81.4203 34.6331 82.1887 34.7859C82.9572 34.9388 83.7538 34.8604 84.4776 34.5605C85.2015 34.2607 85.8202 33.7529 86.2555 33.1014C86.6909 32.4499 86.9232 31.684 86.9232 30.9005C86.922 29.8501 86.5043 28.8432 85.7616 28.1005C85.0189 27.3578 84.0119 26.94 82.9616 26.9389ZM109.9 26.9389C109.117 26.9389 108.351 27.1712 107.7 27.6065C107.048 28.0418 106.54 28.6605 106.24 29.3844C105.941 30.1083 105.862 30.9049 106.015 31.6733C106.168 32.4418 106.545 33.1477 107.099 33.7017C107.653 34.2558 108.359 34.6331 109.128 34.7859C109.896 34.9388 110.693 34.8604 111.417 34.5605C112.14 34.2607 112.759 33.7529 113.194 33.1014C113.63 32.4499 113.862 31.684 113.862 30.9005C113.861 29.8501 113.443 28.8432 112.7 28.1005C111.958 27.3578 110.951 26.94 109.9 26.9389ZM136.839 26.9389C136.056 26.9389 135.29 27.1712 134.638 27.6065C133.987 28.0418 133.479 28.6605 133.179 29.3844C132.879 30.1083 132.801 30.9049 132.954 31.6733C133.107 32.4418 133.484 33.1477 134.038 33.7017C134.592 34.2558 135.298 34.6331 136.066 34.7859C136.835 34.9388 137.631 34.8604 138.355 34.5605C139.079 34.2607 139.698 33.7529 140.133 33.1014C140.569 32.4499 140.801 31.684 140.801 30.9005C140.8 29.8502 140.382 28.8432 139.639 28.1005C138.897 27.3578 137.89 26.9401 136.839 26.9389Z" fill="#FF925C"/>
<path d="M165.923 84.9616C165.923 85.7451 165.691 86.5111 165.256 87.1625C164.82 87.814 164.202 88.3218 163.478 88.6216C162.754 88.9215 161.957 88.9999 161.189 88.8471C160.42 88.6942 159.714 88.3169 159.16 87.7629C158.606 87.2088 158.229 86.5029 158.076 85.7345C157.923 84.966 158.002 84.1694 158.302 83.4456C158.601 82.7217 159.109 82.103 159.761 81.6677C160.412 81.2323 161.178 81 161.962 81C163.012 81.0012 164.019 81.4189 164.762 82.1616C165.504 82.9043 165.922 83.9113 165.923 84.9616ZM188.9 81C188.117 81 187.351 81.2323 186.7 81.6677C186.048 82.103 185.54 82.7217 185.24 83.4456C184.941 84.1694 184.862 84.966 185.015 85.7345C185.168 86.5029 185.545 87.2088 186.099 87.7629C186.653 88.3169 187.359 88.6942 188.128 88.8471C188.896 88.9999 189.693 88.9215 190.417 88.6216C191.14 88.3218 191.759 87.814 192.194 87.1625C192.63 86.5111 192.862 85.7451 192.862 84.9616C192.861 83.9113 192.443 82.9043 191.7 82.1616C190.958 81.4189 189.951 81.0012 188.9 81ZM215.839 88.9232C216.623 88.9232 217.389 88.6909 218.04 88.2555C218.692 87.8202 219.2 87.2015 219.499 86.4776C219.799 85.7538 219.878 84.9572 219.725 84.1887C219.572 83.4203 219.195 82.7144 218.641 82.1603C218.087 81.6063 217.381 81.229 216.612 81.0761C215.844 80.9233 215.047 81.0017 214.323 81.3016C213.599 81.6014 212.981 82.1092 212.545 82.7607C212.11 83.4121 211.878 84.1781 211.878 84.9616C211.879 86.0119 212.297 87.0189 213.039 87.7615C213.782 88.5042 214.789 88.922 215.839 88.9232ZM161.962 134.878C161.178 134.878 160.412 135.11 159.761 135.545C159.109 135.981 158.601 136.599 158.302 137.323C158.002 138.047 157.923 138.844 158.076 139.612C158.229 140.381 158.606 141.087 159.16 141.641C159.714 142.195 160.42 142.572 161.189 142.725C161.957 142.878 162.754 142.799 163.478 142.499C164.202 142.2 164.82 141.692 165.256 141.04C165.691 140.389 165.923 139.623 165.923 138.839C165.922 137.789 165.504 136.782 164.762 136.039C164.019 135.297 163.012 134.879 161.962 134.878ZM188.9 134.878C188.117 134.878 187.351 135.11 186.7 135.545C186.048 135.981 185.54 136.599 185.24 137.323C184.941 138.047 184.862 138.844 185.015 139.612C185.168 140.381 185.545 141.087 186.099 141.641C186.653 142.195 187.359 142.572 188.128 142.725C188.896 142.878 189.693 142.799 190.417 142.499C191.14 142.2 191.759 141.692 192.194 141.04C192.63 140.389 192.862 139.623 192.862 138.839C192.861 137.789 192.443 136.782 191.7 136.039C190.958 135.297 189.951 134.879 188.9 134.878ZM215.839 134.878C215.056 134.878 214.29 135.11 213.638 135.545C212.987 135.981 212.479 136.599 212.179 137.323C211.879 138.047 211.801 138.844 211.954 139.612C212.107 140.381 212.484 141.087 213.038 141.641C213.592 142.195 214.298 142.572 215.066 142.725C215.835 142.878 216.631 142.799 217.355 142.499C218.079 142.2 218.698 141.692 219.133 141.04C219.569 140.389 219.801 139.623 219.801 138.839C219.8 137.789 219.382 136.782 218.639 136.039C217.897 135.297 216.89 134.879 215.839 134.878ZM161.962 107.939C161.178 107.939 160.412 108.171 159.761 108.607C159.109 109.042 158.601 109.661 158.302 110.384C158.002 111.108 157.923 111.905 158.076 112.673C158.229 113.442 158.606 114.148 159.16 114.702C159.714 115.256 160.42 115.633 161.189 115.786C161.957 115.939 162.754 115.86 163.478 115.561C164.202 115.261 164.82 114.753 165.256 114.101C165.691 113.45 165.923 112.684 165.923 111.9C165.922 110.85 165.504 109.843 164.762 109.1C164.019 108.358 163.012 107.94 161.962 107.939ZM188.9 107.939C188.117 107.939 187.351 108.171 186.7 108.607C186.048 109.042 185.54 109.661 185.24 110.384C184.941 111.108 184.862 111.905 185.015 112.673C185.168 113.442 185.545 114.148 186.099 114.702C186.653 115.256 187.359 115.633 188.128 115.786C188.896 115.939 189.693 115.86 190.417 115.561C191.14 115.261 191.759 114.753 192.194 114.101C192.63 113.45 192.862 112.684 192.862 111.9C192.861 110.85 192.443 109.843 191.7 109.1C190.958 108.358 189.951 107.94 188.9 107.939ZM215.839 107.939C215.056 107.939 214.29 108.171 213.638 108.607C212.987 109.042 212.479 109.661 212.179 110.384C211.879 111.108 211.801 111.905 211.954 112.673C212.107 113.442 212.484 114.148 213.038 114.702C213.592 115.256 214.298 115.633 215.066 115.786C215.835 115.939 216.631 115.86 217.355 115.561C218.079 115.261 218.698 114.753 219.133 114.101C219.569 113.45 219.801 112.684 219.801 111.9C219.8 110.85 219.382 109.843 218.639 109.101C217.897 108.358 216.89 107.94 215.839 107.939Z" fill="#FF925C"/>
<path d="M7.9232 84.9616C7.9232 85.7451 7.69086 86.5111 7.25555 87.1625C6.82024 87.814 6.20153 88.3218 5.47764 88.6216C4.75375 88.9215 3.9572 88.9999 3.18873 88.8471C2.42026 88.6942 1.71437 88.3169 1.16033 87.7629C0.606288 87.2088 0.228982 86.5029 0.0761228 85.7345C-0.0767364 84.966 0.0017165 84.1694 0.30156 83.4456C0.601404 82.7217 1.10917 82.103 1.76065 81.6677C2.41214 81.2323 3.17807 81 3.9616 81C5.01192 81.0012 6.01889 81.4189 6.76158 82.1616C7.50427 82.9043 7.92203 83.9113 7.9232 84.9616ZM30.9005 81C30.1169 81 29.351 81.2323 28.6995 81.6677C28.048 82.103 27.5403 82.7217 27.2404 83.4456C26.9406 84.1694 26.8621 84.966 27.015 85.7345C27.1678 86.5029 27.5452 87.2088 28.0992 87.7629C28.6532 88.3169 29.3591 88.6942 30.1276 88.8471C30.8961 88.9999 31.6926 88.9215 32.4165 88.6216C33.1404 88.3218 33.7591 87.814 34.1944 87.1625C34.6297 86.5111 34.8621 85.7451 34.8621 84.9616C34.8609 83.9113 34.4431 82.9043 33.7005 82.1616C32.9578 81.4189 31.9508 81.0012 30.9005 81ZM57.8393 88.9232C58.6229 88.9232 59.3888 88.6909 60.0403 88.2555C60.6918 87.8202 61.1995 87.2015 61.4994 86.4776C61.7992 85.7538 61.8777 84.9572 61.7248 84.1887C61.5719 83.4203 61.1946 82.7144 60.6406 82.1603C60.0866 81.6063 59.3807 81.229 58.6122 81.0761C57.8437 80.9233 57.0472 81.0017 56.3233 81.3016C55.5994 81.6014 54.9807 82.1092 54.5454 82.7607C54.1101 83.4121 53.8777 84.1781 53.8777 84.9616C53.8789 86.0119 54.2967 87.0189 55.0394 87.7615C55.7821 88.5042 56.789 88.922 57.8393 88.9232ZM3.9616 134.878C3.17807 134.878 2.41214 135.11 1.76065 135.545C1.10917 135.981 0.601404 136.599 0.30156 137.323C0.0017165 138.047 -0.0767364 138.844 0.0761228 139.612C0.228982 140.381 0.606288 141.087 1.16033 141.641C1.71437 142.195 2.42026 142.572 3.18873 142.725C3.9572 142.878 4.75375 142.799 5.47764 142.499C6.20153 142.2 6.82024 141.692 7.25555 141.04C7.69086 140.389 7.9232 139.623 7.9232 138.839C7.92203 137.789 7.50427 136.782 6.76158 136.039C6.01889 135.297 5.01192 134.879 3.9616 134.878ZM30.9005 134.878C30.1169 134.878 29.351 135.11 28.6995 135.545C28.048 135.981 27.5403 136.599 27.2404 137.323C26.9406 138.047 26.8621 138.844 27.015 139.612C27.1678 140.381 27.5452 141.087 28.0992 141.641C28.6532 142.195 29.3591 142.572 30.1276 142.725C30.8961 142.878 31.6926 142.799 32.4165 142.499C33.1404 142.2 33.7591 141.692 34.1944 141.04C34.6297 140.389 34.8621 139.623 34.8621 138.839C34.8609 137.789 34.4431 136.782 33.7005 136.039C32.9578 135.297 31.9508 134.879 30.9005 134.878ZM57.8393 134.878C57.0558 134.878 56.2899 135.11 55.6384 135.545C54.9869 135.981 54.4791 136.599 54.1793 137.323C53.8794 138.047 53.801 138.844 53.9539 139.612C54.1067 140.381 54.484 141.087 55.0381 141.641C55.5921 142.195 56.298 142.572 57.0665 142.725C57.8349 142.878 58.6315 142.799 59.3554 142.499C60.0793 142.2 60.698 141.692 61.1333 141.04C61.5686 140.389 61.8009 139.623 61.8009 138.839C61.7997 137.789 61.382 136.782 60.6393 136.039C59.8966 135.297 58.8896 134.879 57.8393 134.878ZM3.9616 107.939C3.17807 107.939 2.41214 108.171 1.76065 108.607C1.10917 109.042 0.601404 109.661 0.30156 110.384C0.0017165 111.108 -0.0767364 111.905 0.0761228 112.673C0.228982 113.442 0.606288 114.148 1.16033 114.702C1.71437 115.256 2.42026 115.633 3.18873 115.786C3.9572 115.939 4.75375 115.86 5.47764 115.561C6.20153 115.261 6.82024 114.753 7.25555 114.101C7.69086 113.45 7.9232 112.684 7.9232 111.9C7.92203 110.85 7.50427 109.843 6.76158 109.1C6.01889 108.358 5.01192 107.94 3.9616 107.939ZM30.9005 107.939C30.1169 107.939 29.351 108.171 28.6995 108.607C28.048 109.042 27.5403 109.661 27.2404 110.384C26.9406 111.108 26.8621 111.905 27.015 112.673C27.1678 113.442 27.5452 114.148 28.0992 114.702C28.6532 115.256 29.3591 115.633 30.1276 115.786C30.8961 115.939 31.6926 115.86 32.4165 115.561C33.1404 115.261 33.7591 114.753 34.1944 114.101C34.6297 113.45 34.8621 112.684 34.8621 111.9C34.8609 110.85 34.4431 109.843 33.7005 109.1C32.9578 108.358 31.9508 107.94 30.9005 107.939ZM57.8393 107.939C57.0558 107.939 56.2899 108.171 55.6384 108.607C54.9869 109.042 54.4791 109.661 54.1793 110.384C53.8794 111.108 53.801 111.905 53.9539 112.673C54.1067 113.442 54.484 114.148 55.0381 114.702C55.5921 115.256 56.298 115.633 57.0665 115.786C57.8349 115.939 58.6315 115.86 59.3554 115.561C60.0793 115.261 60.698 114.753 61.1333 114.101C61.5686 113.45 61.8009 112.684 61.8009 111.9C61.7997 110.85 61.382 109.843 60.6393 109.101C59.8966 108.358 58.8896 107.94 57.8393 107.939Z" fill="#FF925C"/>
<path d="M86.9232 84.9616C86.9232 85.7451 86.6909 86.5111 86.2555 87.1625C85.8202 87.814 85.2015 88.3218 84.4776 88.6216C83.7538 88.9215 82.9572 88.9999 82.1887 88.8471C81.4203 88.6942 80.7144 88.3169 80.1603 87.7629C79.6063 87.2088 79.229 86.5029 79.0761 85.7345C78.9233 84.966 79.0017 84.1694 79.3016 83.4456C79.6014 82.7217 80.1092 82.103 80.7607 81.6677C81.4121 81.2323 82.1781 81 82.9616 81C84.0119 81.0012 85.0189 81.4189 85.7616 82.1616C86.5043 82.9043 86.922 83.9113 86.9232 84.9616ZM109.9 81C109.117 81 108.351 81.2323 107.7 81.6677C107.048 82.103 106.54 82.7217 106.24 83.4456C105.941 84.1694 105.862 84.966 106.015 85.7345C106.168 86.5029 106.545 87.2088 107.099 87.7629C107.653 88.3169 108.359 88.6942 109.128 88.8471C109.896 88.9999 110.693 88.9215 111.417 88.6216C112.14 88.3218 112.759 87.814 113.194 87.1625C113.63 86.5111 113.862 85.7451 113.862 84.9616C113.861 83.9113 113.443 82.9043 112.7 82.1616C111.958 81.4189 110.951 81.0012 109.9 81ZM136.839 88.9232C137.623 88.9232 138.389 88.6909 139.04 88.2555C139.692 87.8202 140.2 87.2015 140.499 86.4776C140.799 85.7538 140.878 84.9572 140.725 84.1887C140.572 83.4203 140.195 82.7144 139.641 82.1603C139.087 81.6063 138.381 81.229 137.612 81.0761C136.844 80.9233 136.047 81.0017 135.323 81.3016C134.599 81.6014 133.981 82.1092 133.545 82.7607C133.11 83.4121 132.878 84.1781 132.878 84.9616C132.879 86.0119 133.297 87.0189 134.039 87.7615C134.782 88.5042 135.789 88.922 136.839 88.9232ZM82.9616 134.878C82.1781 134.878 81.4121 135.11 80.7607 135.545C80.1092 135.981 79.6014 136.599 79.3016 137.323C79.0017 138.047 78.9233 138.844 79.0761 139.612C79.229 140.381 79.6063 141.087 80.1603 141.641C80.7144 142.195 81.4203 142.572 82.1887 142.725C82.9572 142.878 83.7538 142.799 84.4776 142.499C85.2015 142.2 85.8202 141.692 86.2555 141.04C86.6909 140.389 86.9232 139.623 86.9232 138.839C86.922 137.789 86.5043 136.782 85.7616 136.039C85.0189 135.297 84.0119 134.879 82.9616 134.878ZM109.9 134.878C109.117 134.878 108.351 135.11 107.7 135.545C107.048 135.981 106.54 136.599 106.24 137.323C105.941 138.047 105.862 138.844 106.015 139.612C106.168 140.381 106.545 141.087 107.099 141.641C107.653 142.195 108.359 142.572 109.128 142.725C109.896 142.878 110.693 142.799 111.417 142.499C112.14 142.2 112.759 141.692 113.194 141.04C113.63 140.389 113.862 139.623 113.862 138.839C113.861 137.789 113.443 136.782 112.7 136.039C111.958 135.297 110.951 134.879 109.9 134.878ZM136.839 134.878C136.056 134.878 135.29 135.11 134.638 135.545C133.987 135.981 133.479 136.599 133.179 137.323C132.879 138.047 132.801 138.844 132.954 139.612C133.107 140.381 133.484 141.087 134.038 141.641C134.592 142.195 135.298 142.572 136.066 142.725C136.835 142.878 137.631 142.799 138.355 142.499C139.079 142.2 139.698 141.692 140.133 141.04C140.569 140.389 140.801 139.623 140.801 138.839C140.8 137.789 140.382 136.782 139.639 136.039C138.897 135.297 137.89 134.879 136.839 134.878ZM82.9616 107.939C82.1781 107.939 81.4121 108.171 80.7607 108.607C80.1092 109.042 79.6014 109.661 79.3016 110.384C79.0017 111.108 78.9233 111.905 79.0761 112.673C79.229 113.442 79.6063 114.148 80.1603 114.702C80.7144 115.256 81.4203 115.633 82.1887 115.786C82.9572 115.939 83.7538 115.86 84.4776 115.561C85.2015 115.261 85.8202 114.753 86.2555 114.101C86.6909 113.45 86.9232 112.684 86.9232 111.9C86.922 110.85 86.5043 109.843 85.7616 109.1C85.0189 108.358 84.0119 107.94 82.9616 107.939ZM109.9 107.939C109.117 107.939 108.351 108.171 107.7 108.607C107.048 109.042 106.54 109.661 106.24 110.384C105.941 111.108 105.862 111.905 106.015 112.673C106.168 113.442 106.545 114.148 107.099 114.702C107.653 115.256 108.359 115.633 109.128 115.786C109.896 115.939 110.693 115.86 111.417 115.561C112.14 115.261 112.759 114.753 113.194 114.101C113.63 113.45 113.862 112.684 113.862 111.9C113.861 110.85 113.443 109.843 112.7 109.1C111.958 108.358 110.951 107.94 109.9 107.939ZM136.839 107.939C136.056 107.939 135.29 108.171 134.638 108.607C133.987 109.042 133.479 109.661 133.179 110.384C132.879 111.108 132.801 111.905 132.954 112.673C133.107 113.442 133.484 114.148 134.038 114.702C134.592 115.256 135.298 115.633 136.066 115.786C136.835 115.939 137.631 115.86 138.355 115.561C139.079 115.261 139.698 114.753 140.133 114.101C140.569 113.45 140.801 112.684 140.801 111.9C140.8 110.85 140.382 109.843 139.639 109.101C138.897 108.358 137.89 107.94 136.839 107.939Z" fill="#FF925C"/>
<path d="M165.923 165.962C165.923 166.745 165.691 167.511 165.256 168.163C164.82 168.814 164.202 169.322 163.478 169.622C162.754 169.921 161.957 170 161.189 169.847C160.42 169.694 159.714 169.317 159.16 168.763C158.606 168.209 158.229 167.503 158.076 166.734C157.923 165.966 158.002 165.169 158.302 164.446C158.601 163.722 159.109 163.103 159.761 162.668C160.412 162.232 161.178 162 161.962 162C163.012 162.001 164.019 162.419 164.762 163.162C165.504 163.904 165.922 164.911 165.923 165.962ZM188.9 162C188.117 162 187.351 162.232 186.7 162.668C186.048 163.103 185.54 163.722 185.24 164.446C184.941 165.169 184.862 165.966 185.015 166.734C185.168 167.503 185.545 168.209 186.099 168.763C186.653 169.317 187.359 169.694 188.128 169.847C188.896 170 189.693 169.921 190.417 169.622C191.14 169.322 191.759 168.814 192.194 168.163C192.63 167.511 192.862 166.745 192.862 165.962C192.861 164.911 192.443 163.904 191.7 163.162C190.958 162.419 189.951 162.001 188.9 162ZM215.839 169.923C216.623 169.923 217.389 169.691 218.04 169.256C218.692 168.82 219.2 168.202 219.499 167.478C219.799 166.754 219.878 165.957 219.725 165.189C219.572 164.42 219.195 163.714 218.641 163.16C218.087 162.606 217.381 162.229 216.612 162.076C215.844 161.923 215.047 162.002 214.323 162.302C213.599 162.601 212.981 163.109 212.545 163.761C212.11 164.412 211.878 165.178 211.878 165.962C211.879 167.012 212.297 168.019 213.039 168.762C213.782 169.504 214.789 169.922 215.839 169.923ZM161.962 215.878C161.178 215.878 160.412 216.11 159.761 216.545C159.109 216.981 158.601 217.599 158.302 218.323C158.002 219.047 157.923 219.844 158.076 220.612C158.229 221.381 158.606 222.087 159.16 222.641C159.714 223.195 160.42 223.572 161.189 223.725C161.957 223.878 162.754 223.799 163.478 223.499C164.202 223.2 164.82 222.692 165.256 222.04C165.691 221.389 165.923 220.623 165.923 219.839C165.922 218.789 165.504 217.782 164.762 217.039C164.019 216.297 163.012 215.879 161.962 215.878ZM188.9 215.878C188.117 215.878 187.351 216.11 186.7 216.545C186.048 216.981 185.54 217.599 185.24 218.323C184.941 219.047 184.862 219.844 185.015 220.612C185.168 221.381 185.545 222.087 186.099 222.641C186.653 223.195 187.359 223.572 188.128 223.725C188.896 223.878 189.693 223.799 190.417 223.499C191.14 223.2 191.759 222.692 192.194 222.04C192.63 221.389 192.862 220.623 192.862 219.839C192.861 218.789 192.443 217.782 191.7 217.039C190.958 216.297 189.951 215.879 188.9 215.878ZM215.839 215.878C215.056 215.878 214.29 216.11 213.638 216.545C212.987 216.981 212.479 217.599 212.179 218.323C211.879 219.047 211.801 219.844 211.954 220.612C212.107 221.381 212.484 222.087 213.038 222.641C213.592 223.195 214.298 223.572 215.066 223.725C215.835 223.878 216.631 223.799 217.355 223.499C218.079 223.2 218.698 222.692 219.133 222.04C219.569 221.389 219.801 220.623 219.801 219.839C219.8 218.789 219.382 217.782 218.639 217.039C217.897 216.297 216.89 215.879 215.839 215.878ZM161.962 188.939C161.178 188.939 160.412 189.171 159.761 189.607C159.109 190.042 158.601 190.661 158.302 191.384C158.002 192.108 157.923 192.905 158.076 193.673C158.229 194.442 158.606 195.148 159.16 195.702C159.714 196.256 160.42 196.633 161.189 196.786C161.957 196.939 162.754 196.86 163.478 196.561C164.202 196.261 164.82 195.753 165.256 195.101C165.691 194.45 165.923 193.684 165.923 192.9C165.922 191.85 165.504 190.843 164.762 190.1C164.019 189.358 163.012 188.94 161.962 188.939ZM188.9 188.939C188.117 188.939 187.351 189.171 186.7 189.607C186.048 190.042 185.54 190.661 185.24 191.384C184.941 192.108 184.862 192.905 185.015 193.673C185.168 194.442 185.545 195.148 186.099 195.702C186.653 196.256 187.359 196.633 188.128 196.786C188.896 196.939 189.693 196.86 190.417 196.561C191.14 196.261 191.759 195.753 192.194 195.101C192.63 194.45 192.862 193.684 192.862 192.9C192.861 191.85 192.443 190.843 191.7 190.1C190.958 189.358 189.951 188.94 188.9 188.939ZM215.839 188.939C215.056 188.939 214.29 189.171 213.638 189.607C212.987 190.042 212.479 190.661 212.179 191.384C211.879 192.108 211.801 192.905 211.954 193.673C212.107 194.442 212.484 195.148 213.038 195.702C213.592 196.256 214.298 196.633 215.066 196.786C215.835 196.939 216.631 196.86 217.355 196.561C218.079 196.261 218.698 195.753 219.133 195.101C219.569 194.45 219.801 193.684 219.801 192.9C219.8 191.85 219.382 190.843 218.639 190.101C217.897 189.358 216.89 188.94 215.839 188.939Z" fill="#FF925C"/>
<path d="M7.9232 165.962C7.9232 166.745 7.69086 167.511 7.25555 168.163C6.82024 168.814 6.20153 169.322 5.47764 169.622C4.75375 169.921 3.9572 170 3.18873 169.847C2.42026 169.694 1.71437 169.317 1.16033 168.763C0.606288 168.209 0.228982 167.503 0.0761228 166.734C-0.0767364 165.966 0.0017165 165.169 0.30156 164.446C0.601404 163.722 1.10917 163.103 1.76065 162.668C2.41214 162.232 3.17807 162 3.9616 162C5.01192 162.001 6.01889 162.419 6.76158 163.162C7.50427 163.904 7.92203 164.911 7.9232 165.962ZM30.9005 162C30.1169 162 29.351 162.232 28.6995 162.668C28.048 163.103 27.5403 163.722 27.2404 164.446C26.9406 165.169 26.8621 165.966 27.015 166.734C27.1678 167.503 27.5452 168.209 28.0992 168.763C28.6532 169.317 29.3591 169.694 30.1276 169.847C30.8961 170 31.6926 169.921 32.4165 169.622C33.1404 169.322 33.7591 168.814 34.1944 168.163C34.6297 167.511 34.8621 166.745 34.8621 165.962C34.8609 164.911 34.4431 163.904 33.7005 163.162C32.9578 162.419 31.9508 162.001 30.9005 162ZM57.8393 169.923C58.6229 169.923 59.3888 169.691 60.0403 169.256C60.6918 168.82 61.1995 168.202 61.4994 167.478C61.7992 166.754 61.8777 165.957 61.7248 165.189C61.5719 164.42 61.1946 163.714 60.6406 163.16C60.0866 162.606 59.3807 162.229 58.6122 162.076C57.8437 161.923 57.0472 162.002 56.3233 162.302C55.5994 162.601 54.9807 163.109 54.5454 163.761C54.1101 164.412 53.8777 165.178 53.8777 165.962C53.8789 167.012 54.2967 168.019 55.0394 168.762C55.7821 169.504 56.789 169.922 57.8393 169.923ZM3.9616 215.878C3.17807 215.878 2.41214 216.11 1.76065 216.545C1.10917 216.981 0.601404 217.599 0.30156 218.323C0.0017165 219.047 -0.0767364 219.844 0.0761228 220.612C0.228982 221.381 0.606288 222.087 1.16033 222.641C1.71437 223.195 2.42026 223.572 3.18873 223.725C3.9572 223.878 4.75375 223.799 5.47764 223.499C6.20153 223.2 6.82024 222.692 7.25555 222.04C7.69086 221.389 7.9232 220.623 7.9232 219.839C7.92203 218.789 7.50427 217.782 6.76158 217.039C6.01889 216.297 5.01192 215.879 3.9616 215.878ZM30.9005 215.878C30.1169 215.878 29.351 216.11 28.6995 216.545C28.048 216.981 27.5403 217.599 27.2404 218.323C26.9406 219.047 26.8621 219.844 27.015 220.612C27.1678 221.381 27.5452 222.087 28.0992 222.641C28.6532 223.195 29.3591 223.572 30.1276 223.725C30.8961 223.878 31.6926 223.799 32.4165 223.499C33.1404 223.2 33.7591 222.692 34.1944 222.04C34.6297 221.389 34.8621 220.623 34.8621 219.839C34.8609 218.789 34.4431 217.782 33.7005 217.039C32.9578 216.297 31.9508 215.879 30.9005 215.878ZM57.8393 215.878C57.0558 215.878 56.2899 216.11 55.6384 216.545C54.9869 216.981 54.4791 217.599 54.1793 218.323C53.8794 219.047 53.801 219.844 53.9539 220.612C54.1067 221.381 54.484 222.087 55.0381 222.641C55.5921 223.195 56.298 223.572 57.0665 223.725C57.8349 223.878 58.6315 223.799 59.3554 223.499C60.0793 223.2 60.698 222.692 61.1333 222.04C61.5686 221.389 61.8009 220.623 61.8009 219.839C61.7997 218.789 61.382 217.782 60.6393 217.039C59.8966 216.297 58.8896 215.879 57.8393 215.878ZM3.9616 188.939C3.17807 188.939 2.41214 189.171 1.76065 189.607C1.10917 190.042 0.601404 190.661 0.30156 191.384C0.0017165 192.108 -0.0767364 192.905 0.0761228 193.673C0.228982 194.442 0.606288 195.148 1.16033 195.702C1.71437 196.256 2.42026 196.633 3.18873 196.786C3.9572 196.939 4.75375 196.86 5.47764 196.561C6.20153 196.261 6.82024 195.753 7.25555 195.101C7.69086 194.45 7.9232 193.684 7.9232 192.9C7.92203 191.85 7.50427 190.843 6.76158 190.1C6.01889 189.358 5.01192 188.94 3.9616 188.939ZM30.9005 188.939C30.1169 188.939 29.351 189.171 28.6995 189.607C28.048 190.042 27.5403 190.661 27.2404 191.384C26.9406 192.108 26.8621 192.905 27.015 193.673C27.1678 194.442 27.5452 195.148 28.0992 195.702C28.6532 196.256 29.3591 196.633 30.1276 196.786C30.8961 196.939 31.6926 196.86 32.4165 196.561C33.1404 196.261 33.7591 195.753 34.1944 195.101C34.6297 194.45 34.8621 193.684 34.8621 192.9C34.8609 191.85 34.4431 190.843 33.7005 190.1C32.9578 189.358 31.9508 188.94 30.9005 188.939ZM57.8393 188.939C57.0558 188.939 56.2899 189.171 55.6384 189.607C54.9869 190.042 54.4791 190.661 54.1793 191.384C53.8794 192.108 53.801 192.905 53.9539 193.673C54.1067 194.442 54.484 195.148 55.0381 195.702C55.5921 196.256 56.298 196.633 57.0665 196.786C57.8349 196.939 58.6315 196.86 59.3554 196.561C60.0793 196.261 60.698 195.753 61.1333 195.101C61.5686 194.45 61.8009 193.684 61.8009 192.9C61.7997 191.85 61.382 190.843 60.6393 190.101C59.8966 189.358 58.8896 188.94 57.8393 188.939Z" fill="#FF925C"/>
<path d="M86.9232 165.962C86.9232 166.745 86.6909 167.511 86.2555 168.163C85.8202 168.814 85.2015 169.322 84.4776 169.622C83.7538 169.921 82.9572 170 82.1887 169.847C81.4203 169.694 80.7144 169.317 80.1603 168.763C79.6063 168.209 79.229 167.503 79.0761 166.734C78.9233 165.966 79.0017 165.169 79.3016 164.446C79.6014 163.722 80.1092 163.103 80.7607 162.668C81.4121 162.232 82.1781 162 82.9616 162C84.0119 162.001 85.0189 162.419 85.7616 163.162C86.5043 163.904 86.922 164.911 86.9232 165.962ZM109.9 162C109.117 162 108.351 162.232 107.7 162.668C107.048 163.103 106.54 163.722 106.24 164.446C105.941 165.169 105.862 165.966 106.015 166.734C106.168 167.503 106.545 168.209 107.099 168.763C107.653 169.317 108.359 169.694 109.128 169.847C109.896 170 110.693 169.921 111.417 169.622C112.14 169.322 112.759 168.814 113.194 168.163C113.63 167.511 113.862 166.745 113.862 165.962C113.861 164.911 113.443 163.904 112.7 163.162C111.958 162.419 110.951 162.001 109.9 162ZM136.839 169.923C137.623 169.923 138.389 169.691 139.04 169.256C139.692 168.82 140.2 168.202 140.499 167.478C140.799 166.754 140.878 165.957 140.725 165.189C140.572 164.42 140.195 163.714 139.641 163.16C139.087 162.606 138.381 162.229 137.612 162.076C136.844 161.923 136.047 162.002 135.323 162.302C134.599 162.601 133.981 163.109 133.545 163.761C133.11 164.412 132.878 165.178 132.878 165.962C132.879 167.012 133.297 168.019 134.039 168.762C134.782 169.504 135.789 169.922 136.839 169.923ZM82.9616 215.878C82.1781 215.878 81.4121 216.11 80.7607 216.545C80.1092 216.981 79.6014 217.599 79.3016 218.323C79.0017 219.047 78.9233 219.844 79.0761 220.612C79.229 221.381 79.6063 222.087 80.1603 222.641C80.7144 223.195 81.4203 223.572 82.1887 223.725C82.9572 223.878 83.7538 223.799 84.4776 223.499C85.2015 223.2 85.8202 222.692 86.2555 222.04C86.6909 221.389 86.9232 220.623 86.9232 219.839C86.922 218.789 86.5043 217.782 85.7616 217.039C85.0189 216.297 84.0119 215.879 82.9616 215.878ZM109.9 215.878C109.117 215.878 108.351 216.11 107.7 216.545C107.048 216.981 106.54 217.599 106.24 218.323C105.941 219.047 105.862 219.844 106.015 220.612C106.168 221.381 106.545 222.087 107.099 222.641C107.653 223.195 108.359 223.572 109.128 223.725C109.896 223.878 110.693 223.799 111.417 223.499C112.14 223.2 112.759 222.692 113.194 222.04C113.63 221.389 113.862 220.623 113.862 219.839C113.861 218.789 113.443 217.782 112.7 217.039C111.958 216.297 110.951 215.879 109.9 215.878ZM136.839 215.878C136.056 215.878 135.29 216.11 134.638 216.545C133.987 216.981 133.479 217.599 133.179 218.323C132.879 219.047 132.801 219.844 132.954 220.612C133.107 221.381 133.484 222.087 134.038 222.641C134.592 223.195 135.298 223.572 136.066 223.725C136.835 223.878 137.631 223.799 138.355 223.499C139.079 223.2 139.698 222.692 140.133 222.04C140.569 221.389 140.801 220.623 140.801 219.839C140.8 218.789 140.382 217.782 139.639 217.039C138.897 216.297 137.89 215.879 136.839 215.878ZM82.9616 188.939C82.1781 188.939 81.4121 189.171 80.7607 189.607C80.1092 190.042 79.6014 190.661 79.3016 191.384C79.0017 192.108 78.9233 192.905 79.0761 193.673C79.229 194.442 79.6063 195.148 80.1603 195.702C80.7144 196.256 81.4203 196.633 82.1887 196.786C82.9572 196.939 83.7538 196.86 84.4776 196.561C85.2015 196.261 85.8202 195.753 86.2555 195.101C86.6909 194.45 86.9232 193.684 86.9232 192.9C86.922 191.85 86.5043 190.843 85.7616 190.1C85.0189 189.358 84.0119 188.94 82.9616 188.939ZM109.9 188.939C109.117 188.939 108.351 189.171 107.7 189.607C107.048 190.042 106.54 190.661 106.24 191.384C105.941 192.108 105.862 192.905 106.015 193.673C106.168 194.442 106.545 195.148 107.099 195.702C107.653 196.256 108.359 196.633 109.128 196.786C109.896 196.939 110.693 196.86 111.417 196.561C112.14 196.261 112.759 195.753 113.194 195.101C113.63 194.45 113.862 193.684 113.862 192.9C113.861 191.85 113.443 190.843 112.7 190.1C111.958 189.358 110.951 188.94 109.9 188.939ZM136.839 188.939C136.056 188.939 135.29 189.171 134.638 189.607C133.987 190.042 133.479 190.661 133.179 191.384C132.879 192.108 132.801 192.905 132.954 193.673C133.107 194.442 133.484 195.148 134.038 195.702C134.592 196.256 135.298 196.633 136.066 196.786C136.835 196.939 137.631 196.86 138.355 196.561C139.079 196.261 139.698 195.753 140.133 195.101C140.569 194.45 140.801 193.684 140.801 192.9C140.8 191.85 140.382 190.843 139.639 190.101C138.897 189.358 137.89 188.94 136.839 188.939Z" fill="#FF925C"/>
</svg>
