<svg width="72" height="72" viewBox="0 0 72 72" fill="none" xmlns="http://www.w3.org/2000/svg">
<path d="M65.55 37.0872V34.6099L64.1759 36.6712L49.1713 59.1809C49.1713 59.1809 49.1713 59.1809 49.1713 59.1809C48.2985 60.4901 46.5488 60.8284 45.2622 60.0001L44.9588 59.7756L26.3551 44.2725L25.7344 43.7552L25.2648 44.4127L11.0105 64.364L10.1632 65.55H11.6208H61.2C63.6024 65.55 65.55 63.6024 65.55 61.2V37.0872ZM6.45 58.6008V60.9407L7.81025 59.0368L22.8808 37.9435L22.8809 37.9435C23.7708 36.6976 25.4671 36.3928 26.7235 37.1908L27.0419 37.4251L45.5468 52.8458L46.188 53.3802L46.651 52.6856L65.4241 24.5216L65.55 24.3327V24.1056V10.8C65.55 8.39756 63.6024 6.45 61.2 6.45H10.8C8.39756 6.45 6.45 8.39756 6.45 10.8V58.6008ZM61.2 0.75C66.7505 0.75 71.25 5.24954 71.25 10.8V61.2C71.25 66.7505 66.7505 71.25 61.2 71.25H10.8C5.24954 71.25 0.75 66.7505 0.75 61.2V10.8C0.75 5.24954 5.24954 0.75 10.8 0.75H61.2ZM21.6 15.15C25.1622 15.15 28.05 18.0378 28.05 21.6C28.05 25.1622 25.1622 28.05 21.6 28.05C18.0378 28.05 15.15 25.1622 15.15 21.6C15.15 18.0378 18.0378 15.15 21.6 15.15Z" fill="#D7D7D7" stroke="white" stroke-width="1.5"/>
</svg>
