<svg width="22" height="24" viewBox="0 0 22 24" fill="none" xmlns="http://www.w3.org/2000/svg">
<mask id="path-1-inside-1_2_19" fill="white">
<path d="M6.96493 14.0118C8.36093 13.5946 10.8541 10.7384 16.0478 12.7286C19.8293 14.1776 22 11.4246 22 11.4246C22 11.4246 21.0363 21.6705 16.2284 22.8477C12.899 23.663 5.8104 23.8454 3.3753 22.8477C-0.833324 21.1234 -0.395315 15.7453 0.901658 13.431C2.23622 11.0498 5.55132 9.49813 5.60913 4.58197"/>
</mask>
<path d="M-1.62519 -14.732C-17.5 -9.98785 -26.5231 6.72714 -21.7789 22.6019C-17.0347 38.4767 -0.319753 47.4999 15.555 42.7557L-1.62519 -14.732ZM16.0478 12.7286L5.31291 40.7423L5.3135 40.7425L16.0478 12.7286ZM22 11.4246L51.8682 14.2338C53.1135 0.993901 45.4939 -11.4858 33.1478 -16.4273C20.8016 -21.3689 6.67569 -17.5929 -1.55805 -7.1501L22 11.4246ZM16.2284 22.8477L23.3633 51.987L23.3635 51.9869L16.2284 22.8477ZM3.3753 22.8477L-7.9983 50.6082L-7.99806 50.6083L3.3753 22.8477ZM0.901658 13.431L-25.2686 -1.23589L-25.2687 -1.23564L0.901658 13.431ZM35.6071 4.93473C35.8019 -11.6327 22.5293 -25.2211 5.96189 -25.416C-10.6055 -25.6108 -24.194 -12.3382 -24.3888 4.22921L35.6071 4.93473ZM15.555 42.7557C18.6981 41.8164 21.0308 40.5654 21.7687 40.1679C22.2611 39.9027 22.6691 39.6684 22.8724 39.551C22.9808 39.4885 23.0832 39.4289 23.1371 39.3976C23.2045 39.3584 23.2297 39.3437 23.2502 39.3319C23.4099 39.2396 22.1045 40.0288 20.1833 40.7158C18.0797 41.468 15.4425 42.0473 12.4638 42.0304C9.51351 42.0137 7.07167 41.4162 5.31291 40.7423L26.7826 -15.285C22.4271 -16.954 17.726 -17.9408 12.8038 -17.9687C7.85335 -17.9967 3.53179 -17.0505 -0.0187738 -15.7809C-3.38703 -14.5765 -5.90204 -13.1194 -6.76474 -12.621C-7.50672 -12.1923 -6.99607 -12.4886 -6.68272 -12.6574C-6.36861 -12.8266 -4.4192 -13.8971 -1.62519 -14.732L15.555 42.7557ZM5.3135 40.7425C16.0551 44.8584 26.3156 43.2202 33.847 39.4585C37.2519 37.7578 39.8329 35.7789 41.6297 34.1677C42.5481 33.3442 43.3244 32.5605 43.964 31.8662C44.2857 31.5169 44.5784 31.1843 44.8425 30.8733C44.9748 30.7175 45.1004 30.5665 45.2195 30.4209C45.279 30.348 45.337 30.2764 45.3934 30.2062C45.4216 30.171 45.4495 30.1362 45.4769 30.1017C45.4906 30.0845 45.5042 30.0673 45.5178 30.0502C45.5245 30.0417 45.5346 30.0289 45.538 30.0247C45.548 30.0119 45.5581 29.9992 22 11.4246C-1.55805 -7.1501 -1.54804 -7.16279 -1.53802 -7.17547C-1.53469 -7.17969 -1.52464 -7.19239 -1.51795 -7.20084C-1.50456 -7.21775 -1.49114 -7.23467 -1.47768 -7.25158C-1.45078 -7.2854 -1.42375 -7.31922 -1.3966 -7.35304C-1.34231 -7.42068 -1.2875 -7.48835 -1.23216 -7.55604C-1.12152 -7.69136 -1.00853 -7.82706 -0.893108 -7.96299C-0.662632 -8.23441 -0.420293 -8.50929 -0.165306 -8.78609C0.340824 -9.33551 0.917989 -9.9155 1.57374 -10.5035C2.84545 -11.6438 4.64735 -13.025 7.03695 -14.2185C12.5376 -16.9659 19.822 -17.9521 26.782 -15.2852L5.3135 40.7425ZM22 11.4246C-7.86818 8.61532 -7.86756 8.60872 -7.86694 8.60216C-7.86674 8.60002 -7.86612 8.59348 -7.86571 8.58919C-7.86489 8.5806 -7.86409 8.57214 -7.86329 8.56379C-7.86169 8.54711 -7.86012 8.53091 -7.85858 8.51519C-7.85551 8.48375 -7.85257 8.4542 -7.84976 8.42647C-7.84413 8.37106 -7.83902 8.32272 -7.83446 8.28099C-7.82538 8.19789 -7.81829 8.13915 -7.81348 8.10113C-7.80442 8.02955 -7.80186 8.01879 -7.80612 8.04403C-7.82923 8.18076 -7.82946 8.10742 -7.73087 7.79023C-7.70648 7.71176 -7.20809 5.98726 -5.64205 3.68637C-4.15199 1.49711 0.360232 -4.153 9.09336 -6.29142L23.3635 51.9869C34.5006 49.2598 40.9362 41.8875 43.9592 37.446C47.0581 32.8929 48.6989 28.3862 49.5652 25.5991C50.5057 22.5733 51.0469 19.8649 51.3547 18.0437C51.5159 17.09 51.6313 16.2696 51.7119 15.6331C51.7524 15.3126 51.7849 15.0326 51.8105 14.7989C51.8233 14.6818 51.8344 14.5758 51.8439 14.4815C51.8487 14.4344 51.8531 14.3901 51.8572 14.3488C51.8592 14.3282 51.8611 14.3082 51.8629 14.2891C51.8638 14.2795 51.8647 14.2701 51.8656 14.2609C51.8661 14.2563 51.8667 14.2495 51.8669 14.2472C51.8675 14.2405 51.8682 14.2338 22 11.4246ZM9.09361 -6.29148C9.69424 -6.43855 10.0799 -6.50058 10.1752 -6.51552C10.2966 -6.53454 10.3051 -6.53229 10.1962 -6.52149C9.95682 -6.49774 9.58021 -6.47473 9.19208 -6.47118C8.75915 -6.46722 8.71203 -6.49063 9.0548 -6.45488C9.23616 -6.43597 9.75564 -6.37695 10.5185 -6.22048C11.1668 -6.08749 12.7403 -5.73559 14.7487 -4.91278L-7.99806 50.6083C-3.35441 52.5107 0.975205 53.0279 2.83062 53.2214C5.29142 53.4781 7.68112 53.5452 9.74091 53.5263C13.394 53.4929 18.5572 53.1638 23.3633 51.987L9.09361 -6.29148ZM14.7489 -4.91268C25.1138 -0.666138 29.0134 8.59891 29.7939 14.2714C30.401 18.6837 29.7194 23.3739 27.072 28.0977L-25.2687 -1.23564C-29.2131 5.80244 -30.7621 14.3388 -29.6461 22.4498C-28.3567 31.821 -22.5718 44.6373 -7.9983 50.6082L14.7489 -4.91268ZM27.0719 28.098C25.6609 30.6156 24.1618 32.1713 24.5321 31.7583C24.5809 31.7037 24.6248 31.6556 24.7951 31.4678C24.9332 31.3155 25.158 31.0674 25.4059 30.788C25.9037 30.2267 26.6579 29.357 27.4886 28.28C29.2063 26.053 31.3439 22.8296 32.9983 18.5738C34.6814 14.2443 35.5516 9.65406 35.6071 4.93473L-24.3888 4.22921C-24.3622 1.96796 -23.9281 -0.58474 -22.9246 -3.16628C-21.9497 -5.674 -20.7352 -7.43892 -20.0202 -8.36581C-19.6909 -8.79272 -19.4581 -9.05206 -19.4811 -9.02609C-19.4937 -9.01191 -19.5291 -8.97225 -19.6487 -8.84044C-19.736 -8.74419 -19.9471 -8.51204 -20.1479 -8.28802C-20.5496 -7.83983 -21.3196 -6.97213 -22.1646 -5.8896C-23.0291 -4.78188 -24.1598 -3.21431 -25.2686 -1.23589L27.0719 28.098Z" fill="url(#paint0_radial_2_19)" mask="url(#path-1-inside-1_2_19)"/>
<mask id="path-3-inside-2_2_19" fill="white">
<path d="M5.39305 15.1213C5.71856 9.58235 8.63237 5.76144 8.21756 3.06104C7.89875 0.985473 6.4873 -0.496579 4.41594 0.155392C2.97327 0.609263 1.19102 4.39584 1.19102 4.39584C2.54173 4.93223 4.59552 3.42198 4.59552 3.42198"/>
</mask>
<path d="M-24.5553 13.3613C-25.5273 29.9013 -12.9069 44.0976 3.63309 45.0696C20.1731 46.0416 34.3694 33.4213 35.3414 16.8812L-24.5553 13.3613ZM8.21756 3.06104L-21.4347 7.61567L-21.4346 7.61595L8.21756 3.06104ZM4.41594 0.155392L13.4191 28.7726L13.423 28.7714L4.41594 0.155392ZM1.19102 4.39584L-25.9526 -8.38002C-29.4782 -0.889553 -29.7517 7.72486 -26.7085 15.4239C-23.6652 23.123 -17.5757 29.2222 -9.88148 32.2777L1.19102 4.39584ZM22.368 27.5909C35.7162 17.7754 38.58 -1.0024 28.7645 -14.3505C18.949 -27.6987 0.171141 -30.5624 -13.177 -20.747L22.368 27.5909ZM35.3414 16.8812C35.2274 18.8214 34.6381 20.0466 35.2976 18.2215C35.4378 17.8334 36.3459 15.4283 36.9836 13.0375C37.6286 10.6193 38.8952 5.18152 37.8698 -1.49386L-21.4346 7.61595C-21.8625 4.83065 -21.7709 2.49834 -21.5958 0.886523C-21.4236 -0.698477 -21.1382 -1.86865 -20.9896 -2.42595C-20.8396 -2.98797 -20.7246 -3.30605 -20.77 -3.17408C-20.8319 -2.99479 -20.8891 -2.83968 -21.1317 -2.16805C-21.9068 -0.0228735 -24.1158 5.88226 -24.5553 13.3613L35.3414 16.8812ZM37.8698 -1.49359C36.9505 -7.47842 34.0179 -15.8643 26.2922 -22.3668C17.323 -29.916 5.63804 -31.6803 -4.5911 -28.4606L13.423 28.7714C5.2652 31.3391 -4.67836 29.9899 -12.3443 23.5376C-18.7668 18.132 -20.8342 11.5249 -21.4347 7.61567L37.8698 -1.49359ZM-4.58718 -28.4618C-13.1538 -25.7667 -18.0899 -20.0865 -19.1806 -18.8518C-21.0931 -16.6867 -22.4463 -14.6263 -23.1913 -13.432C-24.0206 -12.1025 -24.6663 -10.9186 -25.084 -10.1211C-25.3035 -9.70187 -25.4873 -9.33724 -25.6302 -9.04762C-25.7022 -8.90174 -25.7654 -8.77198 -25.819 -8.66062C-25.8458 -8.60485 -25.8704 -8.55344 -25.8927 -8.50665C-25.9038 -8.48325 -25.9144 -8.46098 -25.9244 -8.43987C-25.9294 -8.42932 -25.9342 -8.41905 -25.9389 -8.40907C-25.9413 -8.40409 -25.9436 -8.39917 -25.9459 -8.39433C-25.947 -8.39191 -25.9487 -8.38833 -25.9493 -8.38712C-25.951 -8.38356 -25.9526 -8.38002 1.19102 4.39584C28.3347 17.1717 28.333 17.1752 28.3314 17.1787C28.3308 17.1799 28.3292 17.1834 28.3281 17.1857C28.3259 17.1903 28.3238 17.1948 28.3216 17.1994C28.3174 17.2084 28.3131 17.2173 28.309 17.2261C28.3008 17.2435 28.2928 17.2604 28.285 17.2766C28.2696 17.309 28.2552 17.3391 28.2418 17.367C28.215 17.4227 28.1915 17.4707 28.1711 17.5121C28.1312 17.5929 28.098 17.6581 28.068 17.7153C28.0296 17.7886 27.9197 17.9975 27.7163 18.3236C27.5972 18.5146 26.96 19.5432 25.7875 20.8707C25.1825 21.5555 24.0599 22.7497 22.4137 24.045C20.8904 25.2435 17.8573 27.3763 13.4191 28.7726L-4.58718 -28.4618ZM-9.88148 32.2777C-2.66985 35.1416 3.77059 34.6598 7.40573 34.0311C11.1626 33.3813 14.0973 32.2023 15.8266 31.4153C17.6787 30.5724 19.1543 29.7125 20.1256 29.1069C20.6389 28.7869 21.084 28.4923 21.4506 28.2413C21.6355 28.1148 21.8046 27.9964 21.9569 27.8882C22.0332 27.8339 22.1056 27.7819 22.1741 27.7324C22.2083 27.7076 22.2416 27.6834 22.2739 27.6599C22.2901 27.6481 22.306 27.6364 22.3217 27.6249C22.3295 27.6192 22.3373 27.6135 22.345 27.6078C22.3489 27.605 22.3547 27.6008 22.3566 27.5993C22.3623 27.5951 22.368 27.5909 4.59552 3.42198C-13.177 -20.747 -13.1713 -20.7512 -13.1656 -20.7553C-13.1637 -20.7567 -13.158 -20.7609 -13.1542 -20.7637C-13.1466 -20.7693 -13.139 -20.7749 -13.1314 -20.7804C-13.1162 -20.7915 -13.101 -20.8026 -13.0859 -20.8137C-13.0555 -20.8358 -13.0252 -20.8579 -12.9949 -20.8798C-12.9343 -20.9236 -12.8735 -20.9672 -12.8126 -21.0105C-12.6911 -21.097 -12.5674 -21.1834 -12.4413 -21.2697C-12.1923 -21.4401 -11.9182 -21.6209 -11.6186 -21.8078C-11.0745 -22.147 -10.1968 -22.6628 -9.02698 -23.1952C-7.98 -23.6717 -5.812 -24.5736 -2.82012 -25.0911C0.050045 -25.5876 5.72725 -26.0817 12.2635 -23.4861L-9.88148 32.2777Z" fill="url(#paint1_radial_2_19)" mask="url(#path-3-inside-2_2_19)"/>
<mask id="path-5-inside-3_2_19" fill="white">
<path d="M17.2405 15.4891C16.2626 17.0932 11.7849 17.9216 9.60609 17.9761L17.2405 15.4891Z"/>
</mask>
<path d="M42.8556 31.1053C51.4802 16.9585 47.0036 -1.50143 32.8568 -10.126C18.7099 -18.7506 0.250031 -14.274 -8.37457 -0.127145L42.8556 31.1053ZM8.85578 -12.0146C-7.70758 -11.6002 -20.7989 2.16302 -20.3845 18.7264C-19.9701 35.2897 -6.20695 48.3811 10.3564 47.9667L8.85578 -12.0146ZM-8.37457 -0.127145C-6.20075 -3.69284 -3.70739 -6.02135 -2.02283 -7.36936C-0.29528 -8.75177 1.23961 -9.62723 2.22228 -10.1325C4.11123 -11.1039 5.52927 -11.5059 5.95331 -11.6219C6.71131 -11.8294 7.45328 -11.9795 8.85578 -12.0146L10.3564 47.9667C13.9377 47.8771 18.0079 47.2856 21.794 46.2493C23.732 45.7188 26.589 44.8055 29.6607 43.226C32.0553 41.9946 38.3459 38.5026 42.8556 31.1053L-8.37457 -0.127145Z" fill="url(#paint2_radial_2_19)" mask="url(#path-5-inside-3_2_19)"/>
<defs>
<radialGradient id="paint0_radial_2_19" cx="0" cy="0" r="1" gradientUnits="userSpaceOnUse" gradientTransform="translate(11 14.0556) rotate(90) scale(9.47365 11)">
<stop offset="0.234375" stop-color="#FFC7C7" stop-opacity="0.72"/>
<stop offset="1" stop-color="#FF7979"/>
</radialGradient>
<radialGradient id="paint1_radial_2_19" cx="0" cy="0" r="1" gradientUnits="userSpaceOnUse" gradientTransform="translate(4.72446 7.56064) rotate(90) scale(7.56064 3.53343)">
<stop offset="0.234375" stop-color="#FFC7C7" stop-opacity="0.72"/>
<stop offset="1" stop-color="#FF7979"/>
</radialGradient>
<radialGradient id="paint2_radial_2_19" cx="0" cy="0" r="1" gradientUnits="userSpaceOnUse" gradientTransform="translate(13.4233 16.7326) rotate(90) scale(1.24349 3.81722)">
<stop offset="0.234375" stop-color="#FFC7C7" stop-opacity="0.72"/>
<stop offset="1" stop-color="#FF7979"/>
</radialGradient>
</defs>
</svg>
